<?xml version="1.0" encoding="UTF-8" standalone="no"?>
<!-- Created with Inkscape (http://www.inkscape.org/) -->

<svg
   version="1.1"
   id="svg1791"
   width="223.37253"
   height="221.31432"
   viewBox="0 0 223.37253 221.31431"
   sodipodi:docname="hack-new-mouth.svg"
   inkscape:version="1.2.2 (732a01da63, 2022-12-09, custom)"
   inkscape:export-filename="..\Desktop\yeah\favicon.png"
   inkscape:export-xdpi="888.36273"
   inkscape:export-ydpi="888.36273"
   xml:space="preserve"
   xmlns:inkscape="http://www.inkscape.org/namespaces/inkscape"
   xmlns:sodipodi="http://sodipodi.sourceforge.net/DTD/sodipodi-0.dtd"
   xmlns="http://www.w3.org/2000/svg"
   xmlns:svg="http://www.w3.org/2000/svg"><defs
     id="defs1795"><inkscape:path-effect
       effect="powerstroke"
       id="path-effect2445"
       is_visible="true"
       lpeversion="1"
       offset_points="0.2,0.75590497 | 0.5,0.75590497 | 0.8,0.75590497"
       not_jump="false"
       sort_points="true"
       interpolator_type="CentripetalCatmullRom"
       interpolator_beta="0.2"
       start_linecap_type="zerowidth"
       linejoin_type="round"
       miter_limit="4"
       scale_width="1"
       end_linecap_type="zerowidth" /><inkscape:path-effect
       effect="powerstroke"
       id="path-effect2443"
       is_visible="true"
       lpeversion="1"
       offset_points="0.2,0.75590497 | 0.5,0.75590497 | 0.8,0.75590497"
       not_jump="false"
       sort_points="true"
       interpolator_type="CentripetalCatmullRom"
       interpolator_beta="0.2"
       start_linecap_type="zerowidth"
       linejoin_type="round"
       miter_limit="4"
       scale_width="1"
       end_linecap_type="butt" /><inkscape:path-effect
       effect="powerstroke"
       id="path-effect6775"
       is_visible="true"
       lpeversion="1"
       offset_points="0.2,0.47244099 | 0.5,0.47244099 | 0.8,0.47244099"
       not_jump="false"
       sort_points="true"
       interpolator_type="CentripetalCatmullRom"
       interpolator_beta="0.2"
       start_linecap_type="zerowidth"
       linejoin_type="round"
       miter_limit="4"
       scale_width="1"
       end_linecap_type="round" /><inkscape:path-effect
       effect="powerstroke"
       id="path-effect2967"
       is_visible="true"
       lpeversion="1"
       offset_points="0.2,0.61699998 | 3.5,0.61699998 | 6.8,0.61699998"
       not_jump="false"
       sort_points="true"
       interpolator_type="CentripetalCatmullRom"
       interpolator_beta="0.2"
       start_linecap_type="butt"
       linejoin_type="round"
       miter_limit="4"
       scale_width="1"
       end_linecap_type="round" /><inkscape:path-effect
       effect="powerstroke"
       id="path-effect1178"
       is_visible="true"
       lpeversion="1"
       offset_points="0.2,1.4175 | 0.5,1.4175 | 0.8,1.4175"
       not_jump="false"
       sort_points="true"
       interpolator_type="CentripetalCatmullRom"
       interpolator_beta="0.2"
       start_linecap_type="round"
       linejoin_type="round"
       miter_limit="4"
       scale_width="1"
       end_linecap_type="butt" /><inkscape:path-effect
       effect="powerstroke"
       id="path-effect1155"
       is_visible="true"
       lpeversion="1"
       offset_points="0.00993075,0.3458374 | 0.5,0.75590497 | 0.8,0.75590497"
       not_jump="false"
       sort_points="true"
       interpolator_type="CentripetalCatmullRom"
       interpolator_beta="0.2"
       start_linecap_type="zerowidth"
       linejoin_type="round"
       miter_limit="4"
       scale_width="1"
       end_linecap_type="butt" /><inkscape:path-effect
       effect="powerstroke"
       id="path-effect1045"
       is_visible="true"
       lpeversion="1"
       offset_points="0.01905851,0.067884529 | 0.5,0.5 | 0.9940616,0.035128087"
       not_jump="false"
       sort_points="true"
       interpolator_type="CentripetalCatmullRom"
       interpolator_beta="0.2"
       start_linecap_type="zerowidth"
       linejoin_type="round"
       miter_limit="4"
       scale_width="1"
       end_linecap_type="zerowidth" /><inkscape:path-effect
       effect="powerstroke"
       id="path-effect1041"
       is_visible="true"
       lpeversion="1"
       offset_points="0.24194906,0.59319883 | 3.5,0.75590497 | 6.8,0.75590497"
       not_jump="false"
       sort_points="true"
       interpolator_type="CentripetalCatmullRom"
       interpolator_beta="0.2"
       start_linecap_type="zerowidth"
       linejoin_type="round"
       miter_limit="4"
       scale_width="1"
       end_linecap_type="square" /><inkscape:path-effect
       effect="powerstroke"
       id="path-effect23284"
       is_visible="true"
       lpeversion="1"
       offset_points="0.2,0.56693 | 2.5,0.56693 | 4.8,0.56693"
       not_jump="false"
       sort_points="true"
       interpolator_type="CentripetalCatmullRom"
       interpolator_beta="0.2"
       start_linecap_type="zerowidth"
       linejoin_type="round"
       miter_limit="4"
       scale_width="1"
       end_linecap_type="round" /><inkscape:path-effect
       effect="powerstroke"
       id="path-effect23282"
       is_visible="true"
       lpeversion="1"
       offset_points="0.2,0.56693 | 1,0.56693 | 1.8,0.56693"
       not_jump="false"
       sort_points="true"
       interpolator_type="CentripetalCatmullRom"
       interpolator_beta="0.2"
       start_linecap_type="butt"
       linejoin_type="round"
       miter_limit="4"
       scale_width="1"
       end_linecap_type="zerowidth" /><inkscape:path-effect
       effect="powerstroke"
       id="path-effect23280"
       is_visible="true"
       lpeversion="1"
       offset_points="0,-0.0016167431 | 0.5,1.417325 | 0.8,1.417325"
       not_jump="false"
       sort_points="true"
       interpolator_type="CentripetalCatmullRom"
       interpolator_beta="0.2"
       start_linecap_type="zerowidth"
       linejoin_type="round"
       miter_limit="4"
       scale_width="1"
       end_linecap_type="butt" /><inkscape:path-effect
       effect="powerstroke"
       id="path-effect23278"
       is_visible="true"
       lpeversion="1"
       offset_points="0.2,0.75590497 | 0.5,0.75590497 | 0.8,0.75590497"
       not_jump="false"
       sort_points="true"
       interpolator_type="CentripetalCatmullRom"
       interpolator_beta="0.2"
       start_linecap_type="zerowidth"
       linejoin_type="round"
       miter_limit="4"
       scale_width="1"
       end_linecap_type="zerowidth" /><inkscape:path-effect
       effect="powerstroke"
       id="path-effect23272"
       is_visible="true"
       lpeversion="1"
       offset_points="0.2,0.47244099 | 0.5,0.47244099 | 0.8,0.47244099"
       not_jump="false"
       sort_points="true"
       interpolator_type="CentripetalCatmullRom"
       interpolator_beta="0.2"
       start_linecap_type="zerowidth"
       linejoin_type="round"
       miter_limit="4"
       scale_width="1"
       end_linecap_type="round" /><inkscape:path-effect
       effect="powerstroke"
       id="path-effect23270"
       is_visible="true"
       lpeversion="1"
       offset_points="0.2,0.37795299 | 1,0.37795299 | 1.8,0.37795299"
       not_jump="false"
       sort_points="true"
       interpolator_type="CentripetalCatmullRom"
       interpolator_beta="0.2"
       start_linecap_type="zerowidth"
       linejoin_type="round"
       miter_limit="4"
       scale_width="1"
       end_linecap_type="zerowidth" /><inkscape:path-effect
       effect="powerstroke"
       id="path-effect23268"
       is_visible="true"
       lpeversion="1"
       offset_points="0.2,0.56693 | 0.5,0.56693 | 0.8,0.56693"
       not_jump="false"
       sort_points="true"
       interpolator_type="CentripetalCatmullRom"
       interpolator_beta="0.2"
       start_linecap_type="zerowidth"
       linejoin_type="round"
       miter_limit="4"
       scale_width="1"
       end_linecap_type="butt" /><inkscape:path-effect
       effect="powerstroke"
       id="path-effect23266"
       is_visible="true"
       lpeversion="1"
       offset_points="0.2,0.37795299 | 0.5,0.37795299 | 0.8,0.37795299"
       not_jump="false"
       sort_points="true"
       interpolator_type="CentripetalCatmullRom"
       interpolator_beta="0.2"
       start_linecap_type="zerowidth"
       linejoin_type="round"
       miter_limit="4"
       scale_width="1"
       end_linecap_type="butt" /><inkscape:path-effect
       effect="powerstroke"
       id="path-effect23264"
       is_visible="true"
       lpeversion="1"
       offset_points="0.2,0.37795299 | 0.5,0.37795299 | 0.8,0.37795299"
       not_jump="false"
       sort_points="true"
       interpolator_type="CentripetalCatmullRom"
       interpolator_beta="0.2"
       start_linecap_type="zerowidth"
       linejoin_type="round"
       miter_limit="4"
       scale_width="1"
       end_linecap_type="butt" /><inkscape:path-effect
       effect="powerstroke"
       id="path-effect23262"
       is_visible="true"
       lpeversion="1"
       offset_points="0.0018580737,0.03847669 | 1,0.75590497 | 1.9973167,0.035431867"
       not_jump="false"
       sort_points="true"
       interpolator_type="CentripetalCatmullRom"
       interpolator_beta="0.2"
       start_linecap_type="zerowidth"
       linejoin_type="round"
       miter_limit="4"
       scale_width="1"
       end_linecap_type="zerowidth" /><inkscape:path-effect
       effect="powerstroke"
       id="path-effect23260"
       is_visible="true"
       lpeversion="1"
       offset_points="0.0060567678,0.076089241 | 1,0.75590497 | 1.9976019,0.059702437"
       not_jump="false"
       sort_points="true"
       interpolator_type="CentripetalCatmullRom"
       interpolator_beta="0.2"
       start_linecap_type="zerowidth"
       linejoin_type="round"
       miter_limit="4"
       scale_width="1"
       end_linecap_type="zerowidth" /><inkscape:path-effect
       effect="powerstroke"
       id="path-effect23256"
       is_visible="true"
       lpeversion="1"
       offset_points="0.22762185,0.49089417 | 3.5,0.75590497 | 6.8508684,0.58323226"
       not_jump="false"
       sort_points="true"
       interpolator_type="CentripetalCatmullRom"
       interpolator_beta="0.2"
       start_linecap_type="zerowidth"
       linejoin_type="round"
       miter_limit="4"
       scale_width="1"
       end_linecap_type="round" /><inkscape:path-effect
       effect="powerstroke"
       id="path-effect22528"
       is_visible="true"
       lpeversion="1"
       offset_points="0.0047630921,0.18678635 | 0.5,1 | 0.99384864,0.21623534"
       not_jump="false"
       sort_points="true"
       interpolator_type="CentripetalCatmullRom"
       interpolator_beta="0.2"
       start_linecap_type="zerowidth"
       linejoin_type="round"
       miter_limit="4"
       scale_width="1"
       end_linecap_type="zerowidth" /><inkscape:path-effect
       effect="powerstroke"
       id="path-effect22526"
       is_visible="true"
       lpeversion="1"
       offset_points="0.010942476,0.30650534 | 0.5,1 | 0.98660016,0.25992058"
       not_jump="false"
       sort_points="true"
       interpolator_type="CentripetalCatmullRom"
       interpolator_beta="0.2"
       start_linecap_type="zerowidth"
       linejoin_type="round"
       miter_limit="4"
       scale_width="1"
       end_linecap_type="zerowidth" /><inkscape:path-effect
       effect="powerstroke"
       id="path-effect22478"
       is_visible="true"
       lpeversion="1"
       offset_points="0.010029056,0.22006109 | 0.5,0.875 | 0.99661098,0.12944851"
       not_jump="false"
       sort_points="true"
       interpolator_type="CentripetalCatmullRom"
       interpolator_beta="0.2"
       start_linecap_type="zerowidth"
       linejoin_type="round"
       miter_limit="4"
       scale_width="1"
       end_linecap_type="zerowidth" /><inkscape:path-effect
       effect="powerstroke"
       id="path-effect22476"
       is_visible="true"
       lpeversion="1"
       offset_points="0.0046625817,0.19604251 | 0.5,0.875 | 0.99640746,0.13434755"
       not_jump="false"
       sort_points="true"
       interpolator_type="CentripetalCatmullRom"
       interpolator_beta="0.2"
       start_linecap_type="zerowidth"
       linejoin_type="round"
       miter_limit="4"
       scale_width="1"
       end_linecap_type="zerowidth" /><inkscape:path-effect
       effect="powerstroke"
       id="path-effect19570"
       is_visible="true"
       lpeversion="1"
       offset_points="0.031735993,0.52874848 | 1.5,1.417325 | 2.9555559,1.231962"
       not_jump="false"
       sort_points="true"
       interpolator_type="CentripetalCatmullRom"
       interpolator_beta="0.20134228"
       start_linecap_type="zerowidth"
       linejoin_type="round"
       miter_limit="4"
       scale_width="1"
       end_linecap_type="butt" /><inkscape:path-effect
       effect="powerstroke"
       id="path-effect1045-3"
       is_visible="true"
       lpeversion="1"
       offset_points="0.01905851,0.060279577 | 0.5,0.44398612 | 0.9940616,0.031192766"
       not_jump="false"
       sort_points="true"
       interpolator_type="CentripetalCatmullRom"
       interpolator_beta="0.2"
       start_linecap_type="zerowidth"
       linejoin_type="round"
       miter_limit="4"
       scale_width="1"
       end_linecap_type="zerowidth" /><inkscape:path-effect
       effect="powerstroke"
       id="path-effect1045-7"
       is_visible="true"
       lpeversion="1"
       offset_points="0.01905851,0.085929844 | 0.5,0.63291184 | 0.9940616,0.044465964"
       not_jump="false"
       sort_points="true"
       interpolator_type="CentripetalCatmullRom"
       interpolator_beta="0.2"
       start_linecap_type="zerowidth"
       linejoin_type="round"
       miter_limit="4"
       scale_width="1"
       end_linecap_type="zerowidth" /><inkscape:path-effect
       effect="powerstroke"
       id="path-effect1045-35"
       is_visible="true"
       lpeversion="1"
       offset_points="0.01905851,0.064909758 | 0.5,0.47808948 | 0.9940616,0.033588737"
       not_jump="false"
       sort_points="true"
       interpolator_type="CentripetalCatmullRom"
       interpolator_beta="0.2"
       start_linecap_type="zerowidth"
       linejoin_type="round"
       miter_limit="4"
       scale_width="1"
       end_linecap_type="zerowidth" /><clipPath
       clipPathUnits="userSpaceOnUse"
       id="clipPath1600"><path
         id="path1602"
         style="fill:#ff0000;fill-opacity:1;fill-rule:nonzero;stroke:none"
         d="M 7.4160157,8.347656 V 132.63281 c 0.129208,-0.36427 0.318358,-0.70302 0.568359,-1.0039 -0.248678,-0.59149 -0.420639,-1.21592 -0.43164,-1.88672 -0.0088,-0.53511 0.06388,-0.79573 0.160156,-1.30078 0.148487,-0.51151 0.172761,-0.66094 0.417969,-1.17774 0.222563,-0.46909 0.500809,-0.88607 0.828125,-1.26172 0.02778,-0.0465 0.05284,-0.0947 0.08203,-0.14062 0.37709,-0.53809 0.478049,-0.73583 0.9941403,-1.2168 0.18117,-0.16883 0.426331,-0.30761 0.648438,-0.46094 0.04835,-0.47133 0.149147,-0.93493 0.263672,-1.39453 0.132511,-0.58451 0.35469,-1.14097 0.599609,-1.68554 0.428878,-0.89589 0.989836,-1.56255 1.765625,-2.17969 0.149863,-0.1192 0.31904,-0.21235 0.478516,-0.31836 0.715508,-0.42499 1.497933,-0.67448 2.316406,-0.80469 0.386693,-0.0615 0.640594,-0.0583 1.035156,-0.0742 0.487515,0.003 0.979124,0.0175 1.462891,0.0879 0.181196,-1.79213 0.520801,-3.56589 1.167969,-5.2539 0.467373,-0.99251 0.641278,-1.52581 1.34375,-2.37891 0.868412,-1.05463 1.937188,-1.81025 3.287109,-2.09375 0.312229,-0.0656 0.634242,-0.0728 0.951172,-0.10937 0.271628,-0.0314 0.515939,-0.0522 0.738281,-0.0625 6.892505,-0.32021 -9.130418,9.16805 -0.658203,8.90039 0.826248,-0.0261 1.26408,-0.16068 2,-0.58204 0.139583,-0.0799 0.252362,-0.19971 0.384766,-0.29101 0.0269,-0.0185 0.07945,-0.0673 0.0918,-0.0371 0.023,0.0563 -0.02236,0.11979 -0.0332,0.17969 -0.588258,1.96663 -0.603313,4.04333 -0.621093,6.07812 2.28e-4,1.40065 0.06578,2.79849 0.128906,4.19727 0.1875,4.15425 -1.710565,6.41926 -3.794922,6.71875 -0.01692,0.2008 -0.01442,0.36444 -0.05078,0.60156 -0.08796,0.5736 -0.17364,1.14314 -0.392578,1.68555 -0.06308,0.15472 -0.121154,0.31041 -0.189454,0.46289 -0.320642,0.71586 -0.753613,1.37801 -1.263671,1.97265 -0.116518,0.12567 -0.228182,0.25602 -0.34961,0.37696 -0.640004,0.63743 -1.390556,1.15043 -2.220703,1.50781 -0.920987,0.36557 -1.872799,0.64739 -2.871094,0.68359 -0.200956,-0.002 -0.402767,0.003 -0.603515,-0.006 -0.487467,-0.0228 -0.970256,-0.1047 -1.445313,-0.21875 -0.236959,0.003 -0.471431,0.0382 -0.708984,0.0156 -0.188008,-0.0278 -0.375533,-0.0499 -0.5625,-0.084 -0.130024,-0.0237 -0.252568,-0.0759 -0.38086,-0.10742 -2.412062,0.93892 -4.4001663,0.09 -5.1367183,-1.66406 v 67.54102 H 215.27344 V 8.347656 h -77.98438 c 0.11444,0.0618 0.22973,0.12206 0.3418,0.183594 0.0345,0.01892 0.13772,0.07609 0.10352,0.05664 -0.0517,-0.02942 -0.10435,-0.05894 -0.15625,-0.08789 0.43098,0.226032 0.82742,0.358192 1.2832,0.541015 0.67191,0.272393 1.3511,0.528769 2.03906,0.757813 0.72743,0.26358 1.45122,0.536139 2.17969,0.796875 0.70208,0.254753 1.39322,0.537457 2.09765,0.785156 0.93272,0.312406 1.82549,0.721181 2.70899,1.150391 0.60875,0.294422 1.21524,0.595188 1.82812,0.880859 0.81071,0.363494 1.61398,0.741389 2.40039,1.154297 0.13467,0.07559 0.25558,0.172102 0.38868,0.25 1.66629,0.338547 3.5206,1.194454 5.4414,2.712891 0.24951,0.197238 0.47432,0.424808 0.71094,0.638672 0.67751,-0.126714 1.36325,-0.207298 2.05078,-0.263672 0.88467,-0.05294 1.77209,-0.05996 2.65625,0 1.53268,0.11786 2.93589,0.778836 3.87695,2.029297 0.24853,0.33016 0.40994,0.717509 0.61524,1.076172 0.098,0.31609 0.22352,0.624098 0.29492,0.947265 0.002,0.0072 -4.4e-4,0.01434 0.002,0.02148 0.3244,-0.07778 0.64692,-0.164041 0.97461,-0.226563 0.0957,-0.01831 0.19557,-0.0074 0.29297,-0.0098 0.26825,-0.0066 0.5364,-0.0011 0.80469,0 0.33358,-0.0053 0.66856,0.01332 1.00195,-0.002 0.13305,-0.0029 0.26359,-0.01383 0.39453,-0.0332 h 0.002 c 0.17202,-0.03738 0.34563,-0.06637 0.51758,-0.09766 0.24424,-0.04032 0.48955,-0.06612 0.73437,-0.101563 0.17632,-0.0236 0.35211,-0.05516 0.52734,-0.08594 -0.004,5.9e-5 -0.0157,8.46e-4 -0.0117,0 0.19836,-0.04391 0.39615,-0.08902 0.5957,-0.128906 0.0119,-0.0028 0.0233,-0.005 0.0352,-0.0078 0.56425,-0.134474 1.0882,-0.201056 1.56836,-0.210937 4.64159,-0.09552 5.24841,5.14293 -0.23437,6.316406 -0.0549,0.01175 -0.10916,0.02341 -0.16406,0.03516 -0.2378,0.04364 -0.4704,0.112094 -0.70899,0.152344 -0.23666,0.04142 -0.47494,0.08192 -0.71289,0.115234 -0.17241,0.02492 -0.3439,0.05251 -0.51758,0.06641 -0.18895,0.03366 -0.331,0.05841 -0.53125,0.09961 -0.10031,0.01646 -0.20016,0.03096 -0.30078,0.04492 -0.18473,0.461004 -0.71036,0.801637 -1.4707,1.058594 0.13586,0.129661 0.26785,0.262525 0.38867,0.408203 0.0925,0.119786 0.18894,0.236496 0.27734,0.359375 0.33783,0.46957 0.5771,1.001603 0.75196,1.550781 0.079,0.272842 0.16775,0.549321 0.21875,0.828125 0.0872,0.265693 0.24809,0.494246 0.4082,0.720703 0.0269,0.03772 0.20282,0.283222 0.33789,0.472656 0.56864,0.586221 0.45768,0.512886 -0.57422,0.908203 -3.62036,3.588792 -2.78957,4.644104 -4.26953,3.070313 -0.12153,-0.1346 -0.254,-0.261803 -0.3789,-0.392578 -0.0365,-0.02935 -0.074,-0.05714 -0.10938,-0.08789 -0.005,-0.004 0.0476,0.02565 0.002,-0.0059 -0.13526,-0.0903 -0.27272,-0.176106 -0.41211,-0.259766 -0.46616,-0.279835 -0.92686,-0.572067 -1.35937,-0.902344 -0.20586,-0.157906 -0.42546,-0.295608 -0.6543,-0.417968 -0.67338,-0.362645 -1.34964,-0.719538 -2.03125,-1.066407 -0.95379,-0.461733 -1.90958,-0.919233 -2.86133,-1.384765 0.33192,0.490788 0.84682,1.043482 1.78516,1.740234 0.075,0.05566 0.0769,0.06073 0.10352,0.08203 0.0633,0.05274 -0.0237,-0.0031 -0.0566,-0.03125 -0.0466,-0.022 -0.0697,-0.02899 -0.2793,-0.146484 -0.42557,-0.238618 -0.38661,-0.242795 -0.76563,-0.457031 -0.22281,-0.145034 -0.45595,-0.271796 -0.68554,-0.40625 0.16425,0.09913 0.31895,0.190209 0.21093,0.103515 -0.0945,-0.06238 -0.0959,-0.0557 -0.23437,-0.117187 -0.002,-0.0011 -0.005,-0.0027 -0.008,-0.0039 h -0.002 c -0.0337,-0.01563 -0.0678,-0.03126 -0.10156,-0.04687 -0.0175,-0.0084 -0.009,-0.0039 -0.0293,-0.01367 -0.0221,-0.01025 -0.0443,-0.021 -0.0664,-0.03125 -0.003,-0.0011 -0.006,-0.0028 -0.01,-0.0039 -0.003,-4.36e-4 -0.007,-0.0015 -0.01,-0.002 -0.11365,-0.01761 -0.22196,-0.03305 -0.39649,-0.0625 -0.6398,-0.129612 -1.27483,-0.288947 -1.89062,-0.507812 -0.91782,-0.291232 -1.8196,-0.629341 -2.67188,-1.082031 -0.64855,-0.364511 -1.23981,-0.773107 -1.74609,-1.16211 -0.0461,-0.03486 -0.0973,-0.0613 -0.14063,-0.09961 -0.0233,-0.02058 0.10568,0.06194 0.0801,0.04492 -0.37323,-0.244221 -0.75327,-0.477668 -1.09961,-0.759766 -1.21806,-0.464217 -2.50102,-1.177988 -3.82422,-2.24414 -0.17534,-0.141281 -0.38849,-0.314825 -0.55664,-0.455079 -0.0515,-0.04295 -0.21924,-0.125859 -0.15234,-0.130859 0.002,-1.55e-4 0.006,0.0018 0.008,0.002 -0.0626,-0.04619 -0.12505,-0.09233 -0.1875,-0.138672 -0.10584,-0.08353 -0.21147,-0.1656 -0.3164,-0.25 -0.0668,-0.05364 -0.15939,-0.08852 -0.19922,-0.164062 l -0.002,-0.002 c -0.17002,-0.122945 -0.34024,-0.246159 -0.51172,-0.367188 -0.23078,-0.188863 -0.49864,-0.318406 -0.74804,-0.482422 -0.12138,-0.09459 -0.026,-0.02473 -0.33203,-0.169922 -0.46968,-0.222832 -0.94037,-0.442047 -1.41407,-0.65625 -0.67639,-0.315318 -1.34586,-0.647656 -2.01757,-0.972656 -0.10294,-0.05026 -0.2114,-0.08702 -0.31446,-0.136719 -2.02865,-0.0064 -4.04873,0.259898 -6.05078,0.566407 -0.30406,0.08171 -0.64217,0.121702 -0.9707,0.189453 -0.43771,0.832506 -0.99746,1.478699 -1.62891,1.970703 -0.003,0.190597 -0.0278,0.383168 -0.0195,0.574219 -0.0314,-0.145863 -0.0881,-0.291995 -0.14453,-0.429688 -1.07654,0.772159 -2.34609,1.088885 -3.61133,0.976563 -1.25788,3.239401 -2.51883,7.200074 -4.34961,2.822265 -0.12626,-0.301904 -0.26709,-0.598686 -0.3789,-0.90625 -0.17897,-0.492213 -0.23229,-1.024287 -0.30079,-1.539062 -0.0824,-1.176549 -0.035,-2.328564 0.20704,-3.478516 -1.13472,-1.795974 -1.667,-4.303581 -0.96485,-7.466797 0.0493,-0.222085 0.10384,-0.441246 0.16211,-0.660156 -2.94766,-1.605465 -0.87261,-2.95415 2.00391,-4.265625 0.0956,-0.169823 0.19297,-0.338955 0.29687,-0.503906 0.35806,-0.551993 0.59333,-0.870401 0.97657,-1.416016 0.44505,-0.633897 0.86968,-1.203681 1.27734,-1.71875 z M 62.123047,18.992187 c 0.577096,-0.01731 0.848258,0.983969 1.072266,2.140625 0.337315,0.114393 0.546518,0.249074 0.648437,0.400391 0.212211,0.134054 0.42781,0.296242 0.628906,0.509766 0.281546,0.30299 0.187151,0.187974 0.431641,0.505859 0.03957,0.05145 0.07445,0.105397 0.109375,0.160156 0.05957,0.06781 0.112088,0.127013 0.134766,0.154297 0.12325,0.142615 0.315061,0.316237 0.488281,0.492188 0.907183,0.213259 1.469179,0.551123 1.023437,1.248047 0.226552,0.33892 0.416576,0.701439 0.548828,1.111328 1.217612,3.773048 -2.433537,1.073302 -4.666015,0.177734 -0.05725,0.02683 -0.114946,0.05274 -0.171875,0.08008 -0.251521,0.128782 -0.407775,0.195706 -0.578125,0.285156 0.06512,-0.03665 0.0075,-0.0024 -0.06445,0.03906 -0.02893,0.01975 -0.05892,0.03892 -0.08789,0.05859 -0.05308,0.03346 -0.104753,0.06675 -0.158203,0.09961 -0.0043,0.0027 0.155624,-0.11296 0.08398,-0.0625 -0.05357,0.03778 -0.105106,0.07965 -0.160156,0.115234 -0.01065,0.0069 0.32384,-0.24697 -0.0293,0.02344 -0.05643,0.04179 -0.223944,0.165481 -0.363281,0.269531 0.01692,0.07677 0.03481,0.156473 0.05859,0.242188 v 0.002 c 0.02349,0.0064 0.04666,0.01373 0.07031,0.01953 0.02397,0.0059 0.09656,0.02002 0.07227,0.01563 -0.04682,-0.0085 -0.09395,-0.01814 -0.140625,-0.02734 0.042,0.15033 0.09609,0.313075 0.160156,0.492188 0.12634,0.353174 0.09688,0.273101 0.09375,0.267578 -0.0031,-0.0151 0.01094,0.01528 0.06641,0.152344 0.0013,0.0032 -0.0072,0.0043 -0.0098,0.002 -0.02472,-0.02191 -0.04608,-0.04788 -0.06836,-0.07227 -0.0469,-0.05136 -0.09224,-0.102507 -0.138672,-0.154297 -0.197745,-0.205655 -0.402364,-0.405065 -0.597656,-0.613281 -0.192445,0.150102 -0.377857,0.309913 -0.583984,0.441406 -0.105089,0.04402 0.0082,-0.0049 -0.25,0.181641 -0.192233,0.138907 -0.396213,0.263505 -0.589844,0.400391 -0.328631,0.216725 -0.65399,0.439171 -1.003906,0.621093 -0.280146,0.151919 -0.560401,0.30141 -0.84375,0.447266 -0.480462,0.260623 -0.967,0.509843 -1.458985,0.748047 -0.547715,0.274427 -1.107613,0.527983 -1.654296,0.804687 -0.597139,0.294554 -1.20028,0.573281 -1.791016,0.88086 -0.628027,0.313065 -1.267989,0.603782 -1.890625,0.927734 -0.479469,0.250566 -0.969953,0.481704 -1.431641,0.763672 -0.167464,0.09549 -0.323248,0.207431 -0.480468,0.318359 -0.242354,0.194041 -0.488048,0.382079 -0.742188,0.560547 -0.344143,0.23611 -0.681217,0.486289 -1.033203,0.710938 -0.48027,0.308606 -0.95276,0.626882 -1.419922,0.955078 -0.0225,0.01322 -0.08893,0.04115 -0.109375,0.0625 -0.07096,0.07415 -0.127285,0.161319 -0.203125,0.230469 -0.01065,0.0097 0.01428,-0.0246 0.02148,-0.03711 -0.181424,0.245746 -0.353586,0.498289 -0.529296,0.748047 -0.156031,0.234038 -0.296992,0.476251 -0.417969,0.730469 -0.122042,0.274242 -0.230085,0.509592 -0.271485,0.636719 -0.113347,0.280994 -0.193014,0.576493 -0.322265,0.851562 -0.107255,0.256174 -0.224318,0.507186 -0.326172,0.765625 -0.03413,0.08449 -0.09707,0.279034 -0.140625,0.351563 -0.0165,0.02748 0.03976,-0.122022 0.0293,-0.0918 -0.05367,0.155623 -0.07317,0.235938 -0.04687,0.128906 0.0027,-0.01454 0.01236,-0.05713 0.0078,-0.04297 -0.06531,0.217308 -0.09317,0.445745 -0.146484,0.666016 -0.07449,0.385796 -0.145322,0.773197 -0.201172,1.162109 -0.70395,4.902124 -4.779082,5.3687 -5.955078,2.216797 -0.277363,0.441751 -0.557555,0.881886 -0.851563,1.3125 -0.546157,0.784123 -1.115131,1.552348 -1.691406,2.314453 -0.375351,0.489617 -0.758456,0.971751 -1.15625,1.44336 -0.374853,0.437275 -0.761652,0.861917 -1.1875,1.25 -0.448249,0.415468 -0.93473,0.787059 -1.439453,1.130859 -0.0221,0.01519 -0.04603,0.02807 -0.06836,0.04297 -0.01266,0.04765 -0.02675,0.09507 -0.03711,0.142578 -0.08447,0.387273 -0.222454,0.760937 -0.367187,1.128906 -0.207746,0.471028 -0.432911,0.935376 -0.701172,1.375 -0.195488,0.280076 -0.388675,0.561784 -0.597656,0.832031 -0.446086,0.360039 -0.514129,0.477938 -0.779297,0.197266 -0.01571,0.04597 -0.02613,0.09356 -0.04492,0.138672 -0.126145,0.295511 -0.284712,0.572406 -0.496094,0.816406 -0.08913,0.106092 -0.181862,0.21018 -0.277344,0.310547 0.161174,0.104625 0.290823,0.283459 0.382813,0.634766 0.162188,0.61936 -0.321442,0.9586 -0.742188,1.169921 -0.18413,0.08453 -0.372543,0.162157 -0.5625,0.232422 1.350787,0.254383 1.257208,1.765692 -0.414062,1.824219 -0.09311,0.0033 -0.186187,0.0065 -0.279297,0.0098 -0.911632,0.03336 -1.822574,0.07298 -2.734375,0.101562 -0.759668,0.01505 -1.519977,0.01589 -2.279297,0.04492 -1.447329,0.05534 -1.82488,-1.058661 -1.046875,-1.591797 0.01967,-0.416331 0.39445,-0.863131 1.185547,-1.035156 0.07773,-0.0169 0.156419,-0.03109 0.234375,-0.04687 -0.05895,-0.14521 -0.06678,-0.305592 -0.09961,-0.458984 0.02024,-0.117953 0.02977,-0.237864 0.06055,-0.353516 0.0659,-0.247597 0.272236,-0.534522 0.425781,-0.736328 0.181385,-0.247903 0.399978,-0.459622 0.634765,-0.65625 0.273825,-0.223915 0.551221,-0.441914 0.839844,-0.646485 0.02191,-0.01537 0.04438,-0.02973 0.06641,-0.04492 -0.156574,-0.155081 -0.271856,-0.350468 -0.335937,-0.591797 -0.0232,-0.08739 -0.02467,-0.179982 -0.03711,-0.269532 0.01056,-0.290757 0.05291,-0.602104 0.222656,-0.849609 0.05866,-0.08553 0.103942,-0.195081 0.195312,-0.244141 0.20684,-0.111067 0.437905,-0.166417 0.66211,-0.238281 -0.0026,-0.05765 -0.0053,-0.117108 -0.0039,-0.179687 0.01924,-0.103958 0.03005,-0.208222 0.05664,-0.310547 0.103244,-0.397384 0.382019,-0.729237 0.691406,-0.984375 0.0698,-0.04749 0.136745,-0.09889 0.208985,-0.142578 0.30894,-0.186833 0.654603,-0.286867 1.011718,-0.306641 -0.100221,-0.318015 -0.118538,-0.647733 -0.08984,-0.982422 0.05006,-0.350087 0.183706,-0.678581 0.388672,-0.966797 0.100514,-0.141379 0.227243,-0.281093 0.341796,-0.412109 0.346828,-0.40425 0.743996,-0.759081 1.136719,-1.117188 0.123255,-0.110549 0.252993,-0.213525 0.38086,-0.318359 0.02034,-0.03868 0.04229,-0.07649 0.0625,-0.115234 0.338228,-0.665875 0.688342,-1.324937 1.070312,-1.966797 0.339165,-0.560655 0.720614,-1.094665 1.123047,-1.611328 0.191121,-0.225792 0.379192,-0.458003 0.605469,-0.650391 0.156462,-0.133029 0.190598,-0.147701 0.361328,-0.259766 0.305784,-0.159916 0.635203,-0.312834 0.980469,-0.365234 0.08078,-0.01226 0.1628,-0.01564 0.24414,-0.02344 0.367921,0.05652 0.513279,0.05668 0.628906,0.214843 0.02273,-0.01318 0.04554,-0.02603 0.06836,-0.03906 0.09034,-0.16159 0.178772,-0.324129 0.271484,-0.484375 0.271215,-0.464945 0.54358,-0.928394 0.853516,-1.369141 0.300331,-0.431152 0.626663,-0.840384 0.992187,-1.21875 0.39271,-0.410317 0.790168,-0.817987 1.259766,-1.142578 0.43598,-0.308727 0.898849,-0.575961 1.384766,-0.798828 0.09257,-0.2273 0.198233,-0.448955 0.287109,-0.677734 0.09549,-0.218236 0.16734,-0.446739 0.25,-0.669922 0.124016,-0.330685 0.270561,-0.653897 0.414062,-0.976563 0.254898,-0.562002 0.5627,-1.096292 0.898438,-1.613281 0.235608,-0.343546 0.470951,-0.685186 0.716797,-1.021484 0.351051,-0.438932 0.723541,-0.865261 1.15625,-1.226563 0.129729,-0.108321 0.265349,-0.208332 0.398437,-0.3125 0.593312,-0.428059 1.201327,-0.836476 1.816407,-1.232422 0.29117,-0.191321 0.573142,-0.395178 0.859375,-0.59375 0.160493,-0.116696 0.177915,-0.130301 0.34375,-0.261719 0.389935,-0.308279 0.801577,-0.586495 1.226562,-0.84375 0.561877,-0.345102 1.158316,-0.630031 1.742188,-0.935546 0.653501,-0.346233 1.32967,-0.64657 1.990234,-0.978516 0.596415,-0.313156 1.210048,-0.591858 1.8125,-0.892578 0.52604,-0.275007 1.077146,-0.503569 1.603516,-0.777344 0.437247,-0.213124 0.87185,-0.430936 1.298828,-0.664062 0.281768,-0.147577 0.564757,-0.294425 0.84375,-0.447266 0.200696,-0.105103 0.32817,-0.201707 0.539062,-0.341797 0.251387,-0.162589 0.483641,-0.333226 0.720703,-0.501953 0.237938,-0.186582 0.475862,-0.371097 0.720703,-0.548828 0.16531,-0.120397 0.330264,-0.24024 0.492188,-0.365235 0.211758,-0.162248 0.38915,-0.279099 0.630859,-0.429687 0.334444,-0.218809 0.446455,-0.284252 0.816407,-0.46875 -0.01088,0.0048 -0.0419,0.01897 -0.03125,0.01367 0.146405,-0.07346 0.299992,-0.137017 0.443359,-0.216797 0.04183,-0.02092 0.08292,-0.04209 0.125,-0.0625 0.104201,-0.05053 0.210873,-0.102371 0.316406,-0.150391 0.117183,-0.05334 0.208451,-0.09117 0.119141,-0.05469 0.152725,-0.06767 0.17947,-0.07379 0.205078,-0.08398 -0.05419,0.0027 0.09697,-0.04615 0.146484,-0.06836 0.04139,-0.01857 0.08319,-0.03706 0.125,-0.05469 0.0738,-0.03358 0.14679,-0.06828 0.220703,-0.101563 -0.02142,0.01003 -0.02652,0.01317 0.05859,-0.0293 -0.05179,0.02151 -0.01478,0.0068 0.09961,-0.05273 0.115257,-0.06211 0.129601,-0.06885 0.304687,-0.152344 l 0.002,-0.002 0.002,-0.002 c 0.362815,-0.415571 0.659573,-0.608013 0.900391,-0.615235 z m 1.720703,2.541016 c -0.179325,-0.11328 -0.35657,-0.206372 -0.519531,-0.291016 -0.03895,-0.01641 -0.07842,-0.03176 -0.117188,-0.04883 0.08616,0.451679 0.175568,0.890936 0.257813,1.353516 0.384742,-0.379099 0.572436,-0.726341 0.378906,-1.01367 z m -3.402344,-1.537109 c 0.0052,-0.0021 -0.01053,0.0017 -0.01563,0.0039 -0.0073,0.0031 -0.01434,0.008 -0.02148,0.01172 0.02026,-0.008 0.0084,-0.0042 0.03711,-0.01563 z m 108.787114,1.808593 c -1.12291,-0.0071 -0.93267,0.873441 -0.39454,1.982422 0.55185,0.312541 1.07463,0.670021 1.57227,1.0625 0.37277,0.294008 0.53789,0.514568 0.80469,0.771485 0.28514,-0.847681 0.53094,-1.700503 0.56054,-2.585938 0.0111,-0.332868 -0.93393,-0.913265 -1.42382,-1.044922 -0.46681,-0.125453 -0.83522,-0.18376 -1.11914,-0.185547 z M 64.910156,22.568359 c -0.0042,-0.0025 -0.004,0.0036 0.0039,0.02148 0.02299,0.02788 0.09429,0.109236 0.06836,0.08398 0.0059,0.0066 0.0118,0.01299 0.01758,0.01953 -0.04174,-0.06162 -0.08037,-0.11944 -0.08984,-0.125 z m 97.666014,12.019532 c 0.0426,0.01749 0.0315,0.0052 0.12305,0.06641 -0.0126,-0.0065 -0.0212,-0.0081 -0.0391,-0.01758 -0.005,-0.003 -0.0107,-0.0048 -0.0156,-0.0078 -0.0448,-0.02777 -0.0476,-0.02909 -0.0684,-0.04102 z M 18.419922,122.4043 c -0.779072,0.52063 -1.577373,1.03913 -2.195313,1.52343 0.466228,0.26567 0.898256,0.59314 1.22461,0.95313 0.240156,0.26491 0.441421,0.56242 0.662109,0.84375 0.07241,0.15507 0.143672,0.3108 0.21875,0.46484 0.02849,-0.0172 0.05792,-0.0325 0.08594,-0.0508 0.04044,-0.0291 0.07208,-0.0641 0.111328,-0.0937 -0.05345,-1.21303 -0.102121,-2.42618 -0.107422,-3.64062 z m 1.568359,8.98632 c -0.04398,0.38595 -0.103448,0.76986 -0.208984,1.14454 0.272614,-0.19323 0.517354,-0.3274 0.779297,-0.49805 -0.200923,-0.18969 -0.39114,-0.4063 -0.570313,-0.64649 z" /></clipPath></defs><sodipodi:namedview
     id="namedview1793"
     pagecolor="#808080"
     bordercolor="#000000"
     borderopacity="0.25"
     inkscape:showpageshadow="2"
     inkscape:pageopacity="0"
     inkscape:pagecheckerboard="0"
     inkscape:deskcolor="#d1d1d1"
     showgrid="false"
     inkscape:zoom="5.6568542"
     inkscape:cx="134.43868"
     inkscape:cy="132.84769"
     inkscape:window-width="1920"
     inkscape:window-height="1016"
     inkscape:window-x="0"
     inkscape:window-y="0"
     inkscape:window-maximized="1"
     inkscape:current-layer="layer3"
     inkscape:lockguides="false"
     showguides="true" /><g
     inkscape:groupmode="layer"
     id="layer3"
     inkscape:label=" cat"
     style="display:inline;opacity:1"
     transform="translate(8.0996158,15.466797)"><ellipse
       style="display:inline;opacity:1;fill:none;fill-opacity:0;stroke:#fe8019;stroke-width:3.77953;stroke-linejoin:round;stroke-dasharray:none;stroke-opacity:1"
       id="path5462"
       ry="96.860939"
       rx="102.03886"
       cy="107.09781"
       cx="111.3443"
       clip-path="url(#clipPath1600)" /><path
       style="display:inline;opacity:1;fill:none;fill-opacity:1;stroke:#fe8019;stroke-width:1.32283;stroke-linecap:round;stroke-linejoin:round;stroke-dasharray:none;stroke-opacity:1;paint-order:normal"
       d="M 91.562524,162.4139 C 85.842673,134.0154 167.75978,112.74945 162.24101,152.20781"
       id="path9101"
       sodipodi:nodetypes="cc" /><path
       style="opacity:1;fill:#fe8019;fill-opacity:1;fill-rule:nonzero;stroke:none;stroke-width:1.51181;stroke-linecap:round;stroke-linejoin:round;stroke-dasharray:none;stroke-opacity:1;paint-order:normal"
       d="m 186.23608,130.26279 c -0.15658,0.12542 -0.46259,0.24608 -0.94243,0.74088 -2.12993,2.19633 -4.33289,5.08354 -6.46282,7.27987 -3.45801,3.57558 -7.67719,7.29378 -12.93519,10.80672 -8.62388,5.76173 -17.41049,9.19704 -24.57199,11.19156 -11.53612,3.21287 -22.66276,4.11052 -31.94717,3.83767 -9.00212,-0.26455 -16.10463,-1.57294 -20.452305,-2.55922 l -0.334462,1.47434 c 4.414957,1.00156 11.617567,2.32788 20.742357,2.59604 9.40778,0.27647 20.70106,-0.53828 32.40279,-3.89402 7.25873,-2.08161 16.21916,-5.45376 25.04077,-11.32691 5.35578,-3.5657 9.6854,-7.41099 13.10431,-11.1383 3.29561,-3.59289 5.38564,-6.70533 5.97672,-7.86595 0.31204,-0.61272 0.32049,-0.96034 0.37942,-1.14268 z"
       id="path9103"
       sodipodi:nodetypes="cc"
       inkscape:original-d="m 186.23608,130.26279 c -21.97905,31.85199 -64.7461,39.46028 -97.479136,32.03465"
       inkscape:path-effect="#path-effect1155" /><path
       style="opacity:1;fill:#fe8019;fill-opacity:1;fill-rule:nonzero;stroke:#fe8019;stroke-width:0.856;stroke-linecap:round;stroke-linejoin:round;stroke-dasharray:none;stroke-opacity:1;paint-order:normal"
       d="m 69.606964,127.43443 c 0.0079,0.0206 0.0014,0.0626 0.04797,0.12373 0.321523,0.42157 3.414216,2.97397 7.872209,4.97386 3.399647,1.52511 6.894717,2.33072 10.519164,2.43368 a 0.79744926,0.69807102 40.197849 0 0 0.06974,-0.001 c 1.83536,-0.11743 3.719567,-0.51446 5.612848,-1.29221 1.674936,-0.68805 3.186072,-1.60316 4.568773,-2.6555 2.044702,-1.55618 3.748722,-3.37905 4.890072,-4.6883 1.15527,-1.32521 1.87679,-2.28247 1.92178,-2.45189 0.0106,-0.0401 -0.0107,-0.0614 -0.0129,-0.0737 -0.0124,-0.001 -0.0352,-0.0212 -0.0744,-0.008 -0.21058,0.0719 -1.02041,0.8373 -2.32921,2.0545 -1.26528,1.17674 -3.058435,2.82806 -5.088431,4.20397 -1.373735,0.9311 -2.821515,1.71887 -4.391516,2.30465 -1.759286,0.65639 -3.476174,0.98561 -5.158185,1.09524 -3.455855,-0.10378 -6.708266,-0.7317 -10.075132,-2.01269 -4.40184,-1.67477 -7.728413,-3.87302 -8.240161,-4.00911 -0.07423,-0.0198 -0.110512,0.002 -0.132611,0.003 z"
       id="path9105"
       sodipodi:nodetypes="ccc"
       inkscape:original-d="m 69.606964,127.43443 c 4.96502,3.32981 10.60524,6.55024 18.46103,6.77568 7.92517,-0.5048 12.753616,-5.82592 17.028636,-10.40722"
       inkscape:path-effect="#path-effect23260" /><path
       style="display:inline;opacity:1;fill:#fe8019;fill-opacity:1;fill-rule:nonzero;stroke:#fe8019;stroke-width:0.856;stroke-linecap:round;stroke-linejoin:round;stroke-dasharray:none;stroke-opacity:1;paint-order:normal"
       d="m 135.67433,117.99789 c 0.003,0.007 -8.7e-4,0.0262 0.0207,0.0446 0.15193,0.12912 1.69375,0.63904 4.77713,1.2984 1.66437,0.35591 3.6313,0.72474 5.66889,1.05113 1.88473,0.30192 3.67414,0.54224 5.11978,0.68405 0.75933,0.0745 1.40826,0.12033 1.93756,0.137 0.28464,0.009 0.53562,0.01 0.75389,0.002 0.22818,-0.008 0.42784,-0.0261 0.59928,-0.0558 0.97465,-0.13904 2.00502,-0.57273 3.07207,-1.32719 0.94612,-0.66896 1.84135,-1.53346 2.66071,-2.48143 1.23365,-1.42731 2.21585,-2.95111 2.83675,-4.02761 0.62733,-1.08766 0.92485,-1.76372 0.93401,-1.89349 0.002,-0.0259 -0.0113,-0.0382 -0.0136,-0.0458 -0.008,0.001 -0.0247,-0.005 -0.0469,0.009 -0.12492,0.0759 -0.54584,0.63836 -1.3282,1.62111 -0.75998,0.95462 -1.89227,2.33789 -3.18237,3.58018 -0.86608,0.83397 -1.74611,1.55047 -2.62222,2.08537 -0.98717,0.60272 -1.82211,0.88538 -2.53324,0.98462 a 0.34875116,0.74719798 55.935807 0 0 -0.0284,0.005 c -0.0908,0.0162 -0.22622,0.0333 -0.42299,0.0464 -0.17955,0.012 -0.39824,0.02 -0.66107,0.0224 -0.49049,0.005 -1.10657,-0.0105 -1.85208,-0.0479 -1.4262,-0.0716 -3.18023,-0.21763 -5.07614,-0.41292 -2.03541,-0.20967 -4.01146,-0.45268 -5.68779,-0.6748 -3.11314,-0.41252 -4.68412,-0.68205 -4.88714,-0.63362 -0.0276,0.007 -0.0323,0.0252 -0.0387,0.0303 z"
       id="path9105-5"
       sodipodi:nodetypes="ccc"
       inkscape:original-d="m 135.67433,117.99789 c 5.31729,1.28017 16.53688,2.81136 18.75886,2.41429 3.78907,-0.52951 7.54416,-5.63497 9.60832,-9.02883"
       inkscape:path-effect="#path-effect23262" /><path
       style="opacity:1;fill:#fe8019;fill-opacity:1;fill-rule:nonzero;stroke:#fe8019;stroke-width:1.51181;stroke-linecap:round;stroke-linejoin:round;stroke-dasharray:none;stroke-opacity:1;paint-order:normal"
       d="m 60.59473,110.79382 c 1.596529,0.20272 6.05391,0.90841 9.579173,1.21629 4.310917,0.3765 9.615392,0.46125 14.423088,0.69188 4.807696,0.23063 10.095926,0.65401 14.423088,0.69188 3.538541,0.031 8.043011,-0.24482 9.651611,-0.29378 -1.59653,-0.20272 -6.05391,-0.90841 -9.579173,-1.21629 -4.310917,-0.3765 -9.615392,-0.46125 -14.423088,-0.69188 -4.807696,-0.23063 -10.095926,-0.65401 -14.423088,-0.69188 -3.538546,-0.031 -8.043009,0.24482 -9.651611,0.29378 z"
       id="path10642"
       sodipodi:nodetypes="cc"
       inkscape:path-effect="#path-effect2445"
       inkscape:original-d="m 60.59473,110.79382 48.07696,2.30627" /><path
       style="display:inline;opacity:1;fill:#fabd2f;fill-opacity:1;fill-rule:nonzero;stroke:#fe8019;stroke-width:2;stroke-linecap:round;stroke-linejoin:round;stroke-dasharray:none;stroke-opacity:1;paint-order:normal"
       d="m 147.79978,83.96567 c -0.0686,-0.0094 -0.20136,-0.110322 -0.41142,-0.05643 -1.15438,0.296183 -6.87065,4.80322 -10.06986,7.475741 -3.19153,2.666105 -8.48168,7.457152 -9.10463,8.537538 -0.11569,0.200637 -0.0813,0.349377 -0.0975,0.419247 0.0717,-0.003 0.21166,0.0576 0.42999,-0.0196 1.17568,-0.416023 6.84911,-4.746385 10.05129,-7.399685 3.20989,-2.659686 8.68156,-7.460723 9.1828,-8.541969 0.0912,-0.196749 0.0161,-0.34568 0.0194,-0.414816 z"
       id="path10650"
       sodipodi:nodetypes="cc"
       inkscape:original-d="m 147.79978,83.96567 -19.68343,16.3761"
       inkscape:path-effect="#path-effect22526" /><path
       style="display:inline;opacity:1;fill:#fabd2f;fill-opacity:1;fill-rule:nonzero;stroke:#fe8019;stroke-width:2;stroke-linecap:round;stroke-linejoin:round;stroke-dasharray:none;stroke-opacity:1;paint-order:normal"
       d="m 80.873804,88.89837 c -0.0093,0.03709 -0.07876,0.105397 -0.05555,0.224749 0.09626,0.49494 1.466786,2.435692 3.614205,4.453819 2.276795,2.139714 4.859568,3.877172 7.296159,5.159327 2.429017,1.278165 5.432175,2.486125 8.788529,3.410035 3.14779,0.8665 5.96687,1.28832 6.58158,1.17087 0.16763,-0.032 0.21181,-0.13782 0.25391,-0.16532 -0.0268,-0.0428 -0.0225,-0.15688 -0.16001,-0.25683 -0.49981,-0.36322 -3.20715,-1.16396 -6.19075,-2.26164 -3.313091,-1.218886 -5.898962,-2.3872 -8.343484,-3.667855 -2.420887,-1.268273 -4.779859,-2.68295 -7.228756,-4.559931 -2.222371,-1.703358 -3.87289,-3.351912 -4.325304,-3.522715 -0.113016,-0.04267 -0.192061,0.01304 -0.230532,0.01549 z"
       id="path10652"
       sodipodi:nodetypes="cc"
       inkscape:original-d="m 80.873804,88.89837 c 6.10852,7.33594 15.25108,11.7863 26.478836,14.25348"
       inkscape:path-effect="#path-effect22528" /><path
       style="display:inline;opacity:1;fill:#fe8019;fill-opacity:1;fill-rule:nonzero;stroke:#fe8019;stroke-width:1.512;stroke-linecap:round;stroke-linejoin:round;stroke-dasharray:none;stroke-opacity:1;paint-order:normal"
       d="m 86.810474,106.80012 c 0.01441,0.0327 -4.35e-4,0.13478 0.08645,0.19629 0.571147,0.40434 6.15882,0.70631 9.241151,0.70506 3.086423,-0.001 8.759974,-0.3755 9.265124,-0.71449 0.0642,-0.0431 0.0562,-0.1118 0.0674,-0.13416 -0.0111,-0.0224 -0.003,-0.0911 -0.0667,-0.13454 -0.50322,-0.34184 -6.174575,-0.74811 -9.260942,-0.76681 -3.082274,-0.0187 -8.671564,0.25174 -9.244986,0.65285 -0.08723,0.061 -0.07296,0.16317 -0.08756,0.1958 z"
       id="path10644"
       sodipodi:nodetypes="cc"
       inkscape:original-d="m 86.810474,106.80012 18.660146,0.0527"
       inkscape:path-effect="#path-effect22476" /><path
       style="display:inline;opacity:1;fill:#fe8019;fill-opacity:1;fill-rule:nonzero;stroke:#fe8019;stroke-width:1.51181;stroke-linecap:round;stroke-linejoin:round;stroke-dasharray:none;stroke-opacity:1;paint-order:normal"
       d="m 133.6231,107.25427 c 1.13293,-0.53643 4.40156,-1.92973 6.8963,-3.25331 3.04811,-1.61717 6.65429,-3.93592 10.02924,-5.880598 3.55849,-2.050436 6.92669,-3.947738 10.14028,-5.710106 2.90459,-1.592912 5.17218,-2.795211 6.70284,-3.597334 l -0.70172,-1.339084 c -1.53748,0.805692 -3.81364,2.012547 -6.72808,3.610858 -3.22412,1.768147 -6.60166,3.670738 -10.1681,5.725754 -3.41836,1.969688 -7.13679,3.9597 -10.04767,5.89139 -2.40938,1.59889 -5.08141,3.77106 -6.12309,4.55243 z"
       id="path10646"
       sodipodi:nodetypes="cc"
       inkscape:path-effect="#path-effect2443"
       inkscape:original-d="m 133.6231,107.25427 c 10.67847,-6.443 22.31066,-13.29034 33.4178,-19.11089" /><path
       style="display:inline;opacity:1;fill:#fe8019;fill-opacity:1;fill-rule:nonzero;stroke:#fe8019;stroke-width:1.512;stroke-linecap:round;stroke-linejoin:round;stroke-dasharray:none;stroke-opacity:1;paint-order:normal"
       d="m 146.20708,93.26092 c -0.0418,-0.0169 -0.113,-0.108064 -0.25063,-0.101384 -0.73457,0.03565 -4.66821,2.177336 -6.82592,3.565678 -2.17331,1.398378 -5.97384,4.311666 -6.162,4.803176 -0.0252,0.0658 0.0206,0.11476 0.0247,0.13771 0.019,0.0135 0.044,0.0757 0.11426,0.0807 0.52493,0.0379 4.77453,-2.169387 6.96229,-3.545034 2.17206,-1.365775 5.77923,-4.020713 6.1229,-4.67091 0.0644,-0.121826 0.012,-0.22498 0.0144,-0.269976 z"
       id="path10648"
       sodipodi:nodetypes="cc"
       inkscape:original-d="m 146.20708,93.26092 -13.21386,8.40518"
       inkscape:path-effect="#path-effect22478" /><path
       style="opacity:1;fill:#fe8019;fill-opacity:1;fill-rule:nonzero;stroke:#fe8019;stroke-width:1.234;stroke-linecap:round;stroke-linejoin:round;stroke-dasharray:none;stroke-opacity:1;paint-order:normal"
       d="m 73.699125,103.22183 c 0.09794,-0.0506 0.225211,-0.12243 0.394587,-0.22882 0.126504,-0.0794 0.282042,-0.18167 0.474189,-0.31479 0.288525,-0.19989 0.679133,-0.48302 1.202465,-0.88525 0.474915,-0.36502 1.086308,-0.84909 1.848157,-1.47673 0.409575,-0.337418 0.889517,-0.738498 1.43761,-1.205718 1.837473,-1.566347 5.033024,-4.385319 8.599138,-7.909511 2.666282,-2.634939 5.806875,-5.93233 8.329416,-9.130762 1.125332,-1.426855 2.153831,-2.867401 2.95054,-4.226873 0.381715,-0.651343 0.714279,-1.290955 0.979063,-1.906495 0.25768,-0.599018 0.45539,-1.184984 0.56929,-1.743647 l -1.207815,0.0063 c 0.417564,1.944601 1.122455,4.110456 2.149235,6.355401 0.96283,2.105145 2.21142,4.283748 3.75362,6.362478 1.47838,1.992728 3.23034,3.897975 5.2479,5.534442 1.96671,1.59522 4.18617,2.934991 6.64093,3.842063 a 0.6169994,0.61700259 84.137829 0 0 0.73708,-0.905753 c -1.04276,-1.668465 -1.61409,-3.042849 -1.97771,-4.279787 -0.21753,-0.739965 -0.36415,-1.445252 -0.49023,-2.135054 1.92383,1.278609 4.06423,2.643038 6.26852,3.989123 2.6322,1.607399 5.78396,3.450574 9.12026,5.234719 a 0.61699998,0.61699998 35.773607 0 0 0.73919,-0.120086 c 2.53915,-2.684248 5.03971,-5.452116 7.19269,-8.446832 2.11849,-2.946734 3.90215,-6.110656 5.19563,-9.762163 a 0.61699135,0.61700994 61.975929 0 0 0.0159,-0.05208 c 0.3766,-1.461698 0.64163,-2.803569 0.79728,-4.231032 0.16913,-1.551113 0.19973,-3.130483 0.12421,-4.861813 l -1.16735,0.304648 c 0.24823,0.492385 0.60048,1.053036 1.02912,1.647076 0.4561,0.632107 1.00054,1.304768 1.61253,1.990786 1.40216,1.571768 3.0729,3.120614 4.86204,4.518828 3.12742,2.444073 6.09197,4.030641 8.40352,5.04323 3.27825,1.436058 5.92105,2.006251 6.9409,2.213157 a 0.61699998,0.61699998 90 0 0 0.24536,-1.209362 c -0.97855,-0.198526 -3.52609,-0.747641 -6.69111,-2.134102 -2.23284,-0.97811 -5.10523,-2.514484 -8.13881,-4.885228 -1.73678,-1.357288 -3.35254,-2.856354 -4.70106,-4.367994 -0.58819,-0.659341 -1.10514,-1.298856 -1.53268,-1.891374 -0.40423,-0.56022 -0.71791,-1.063967 -0.92793,-1.480537 a 0.61699998,0.61699999 30.373608 0 0 -1.16735,0.304648 c 0.0734,1.683613 0.0428,3.198657 -0.11812,4.674275 -0.14699,1.348023 -0.39709,2.623104 -0.75873,4.0305 -1.24685,3.511127 -2.96645,6.564437 -5.02529,9.42821 -2.01296,2.799944 -4.34751,5.411164 -6.7634,7.976117 -3.15701,-1.700649 -6.13605,-3.445427 -8.64367,-4.976753 -2.66115,-1.625071 -5.2267,-3.275877 -7.42373,-4.765883 a 0.61699991,0.61700037 11.971203 0 0 -0.95355,0.61993 c 0.19763,1.098126 0.37806,2.353168 0.77195,3.693072 0.26995,0.918289 0.64321,1.897176 1.20246,2.98563 -1.67124,-0.791012 -3.22109,-1.796446 -4.6415,-2.948559 -1.92627,-1.562416 -3.60838,-3.389421 -5.03421,-5.311313 -1.48716,-2.004558 -2.69282,-4.107897 -3.62247,-6.140492 -0.99033,-2.165261 -1.66721,-4.249035 -2.06493,-6.101211 a 0.617,0.61699997 44.702012 0 0 -1.20781,0.0063 c -0.0926,0.454228 -0.259358,0.957693 -0.49373,1.502533 -0.240038,0.558015 -0.547533,1.151455 -0.910138,1.770188 -0.758113,1.293613 -1.749827,2.685576 -2.85481,4.086629 -2.477007,3.140699 -5.57698,6.397467 -8.227892,9.017217 -3.539647,3.498037 -6.711899,6.296355 -8.532278,7.848131 -0.542767,0.462679 -1.0174,0.859312 -1.421715,1.192399 -0.752222,0.619705 -1.352698,1.095027 -1.815518,1.450747 -0.510232,0.39217 -0.884268,0.66298 -1.153207,0.8493 -0.179092,0.12407 -0.319079,0.21589 -0.427797,0.28417 -0.145649,0.0915 -0.242707,0.14545 -0.30468,0.17747 z"
       id="path10661"
       sodipodi:nodetypes="cccccccc"
       inkscape:path-effect="#path-effect2967"
       inkscape:original-d="m 73.415905,102.67367 c 3.16376,-1.63464 24.830329,-20.59485 26.463109,-28.60369 1.698596,7.91039 7.954296,18.15399 17.402296,21.64517 -2.1441,-3.43066 -2.37872,-5.70303 -2.80311,-8.06112 4.11141,2.78833 10.23847,6.63018 16.53813,9.99903 5.2412,-5.5407 9.71368,-10.81694 12.25496,-17.99101 0.72182,-2.80159 1.06107,-5.27833 0.90257,-8.912016 1.78487,3.540326 10.29566,12.626416 22.41985,15.086156" /><path
       style="opacity:1;fill:none;fill-opacity:1;stroke:#fe8019;stroke-width:2.26772;stroke-linecap:round;stroke-linejoin:round;stroke-dasharray:none;stroke-opacity:1;paint-order:normal"
       d="M 32.645487,38.921764 C 31.913392,25.505889 29.602638,8.6567826 35.655856,5.9024866 45.347781,1.8872886 63.660895,23.813902 77.663414,32.769609 c 11.16933,-5.212692 30.024266,-6.885944 36.484216,-4.422138 10.30273,-16.150155 21.56094,-30.6133674 27.66073,-36.2409274 2.75871,-2.5451396 7.84467,-7.5524056 10.93809,-6.2174156 2.49881,1.014292 10.83653,17.4394416 9.72009,31.090729"
       id="path12841"
       sodipodi:nodetypes="ccccscc" /><path
       style="opacity:1;fill:#fabd2f;fill-opacity:1;fill-rule:nonzero;stroke:#fe8019;stroke-width:0.755906;stroke-linecap:round;stroke-linejoin:round;stroke-dasharray:none;stroke-opacity:1;paint-order:normal"
       d="m 39.254342,10.70923 c 1.546627,1.562637 3.401171,3.662648 5.847896,6.68428 2.644617,3.266022 5.188245,6.641697 7.56493,10.506857 2.336632,3.800023 4.302319,7.586835 5.962754,11.13772 1.470153,3.143963 2.60293,5.898642 3.256586,7.527617 L 62.588042,46.2842 C 61.931701,44.648534 60.793101,41.879575 59.314663,38.717895 57.644788,35.14682 55.665774,31.33382 53.311084,27.50443 50.953591,23.670482 48.450289,20.041862 45.679303,16.905259 43.214667,14.115425 40.764271,11.998665 39.254342,10.70923 Z"
       id="path12843"
       sodipodi:nodetypes="cc"
       inkscape:original-d="M 39.254342,10.70923 C 50.267934,20.942149 57.205863,33.886186 62.237275,46.424952"
       inkscape:path-effect="#path-effect23264" /><path
       style="opacity:1;fill:#fabd2f;fill-opacity:1;fill-rule:nonzero;stroke:#fe8019;stroke-width:0.755906;stroke-linecap:round;stroke-linejoin:round;stroke-dasharray:none;stroke-opacity:1;paint-order:normal"
       d="m 71.083273,38.494336 c -0.965002,0.716872 -2.956335,2.114853 -5.153768,4.06997 -2.256551,2.007715 -4.987062,4.773699 -7.990079,8.235425 -2.998743,3.4568 -5.71889,6.961067 -8.294522,10.325767 -4.168211,5.445178 -7.605466,11.043008 -10.348399,16.981646 -1.91636,4.149049 -3.211611,7.867733 -4.006058,10.626855 -0.941398,3.269487 -1.394534,6.079768 -1.632182,7.367121 0.383198,-1.320095 1.238337,-3.892168 2.353109,-7.139837 0.932277,-2.716008 2.214989,-6.34354 4.101147,-10.479617 2.681656,-5.880489 5.999259,-11.49705 10.132613,-16.896693 2.560454,-3.344872 5.35668,-6.810541 8.357621,-10.204285 3.132041,-3.542005 5.604115,-6.022346 7.845571,-8.266638 2.167716,-2.170459 3.644798,-3.694294 4.634947,-4.619714 z"
       id="path12845"
       sodipodi:nodetypes="csc"
       inkscape:original-d="M 71.083273,38.494336 C 62.508242,45.647946 56.162028,53.23359 49.945019,61.355235 41.45098,72.451498 36.55996,83.84813 33.658265,96.10112"
       inkscape:path-effect="#path-effect23270" /><path
       style="opacity:1;fill:#fabd2f;fill-opacity:1;fill-rule:nonzero;stroke:#fe8019;stroke-width:0.755906;stroke-linecap:round;stroke-linejoin:round;stroke-dasharray:none;stroke-opacity:1;paint-order:normal"
       d="m 150.56642,-6.8881424 c -1.5836,1.350397 -4.12421,3.5577341 -6.53353,6.42931513 C 141.318,2.7769427 139.0426,6.4881588 137.11809,10.4649 c -1.92751,3.982921 -3.28764,7.969279 -4.24754,11.832176 -0.85758,3.45116 -1.30086,6.434638 -1.53904,8.322421 l 0.74996,0.09462 c 0.23599,-1.870412 0.67472,-4.822311 1.52268,-8.234752 0.94893,-3.818752 2.29237,-7.755008 4.19435,-11.685181 1.91983,-3.9670563 4.26531,-7.4519006 6.82363,-10.77953308 2.35129,-3.05833582 4.35239,-5.30924452 5.94429,-6.90279732 z"
       id="path12847"
       sodipodi:nodetypes="cc"
       inkscape:original-d="M 150.56642,-6.8881424 C 138.98355,3.8161886 133.48093,16.60304 131.70649,30.666809"
       inkscape:path-effect="#path-effect23266" /><path
       style="opacity:1;fill:#fe8019;fill-opacity:1;fill-rule:nonzero;stroke:#fe8019;stroke-width:0.6;stroke-linecap:round;stroke-linejoin:round;stroke-dasharray:none;stroke-opacity:1;paint-order:normal"
       d="m 197.62537,107.69606 c 0.21884,0.58732 0.97972,3.06169 1.64544,5.55342 0.11039,0.4132 0.22935,0.87386 0.34735,1.37005 0.42018,1.76682 0.87493,4.16522 0.88237,6.88905 0.006,2.0931 -0.25006,4.45729 -1.03403,6.99858 -0.6873,2.22791 -1.78829,4.61881 -3.5092,7.11831 -1.61926,2.21963 -3.29022,4.02459 -5.03664,5.54639 -1.68021,1.46411 -3.39273,2.63423 -5.1607,3.67257 -1.74581,1.02533 -3.50215,1.89746 -5.29136,2.79553 -1.11765,0.56098 -2.22549,1.12117 -3.33001,1.72389 1.55145,-2.61757 2.90317,-4.97909 4.07499,-7.08011 1.45931,-2.61649 2.85847,-5.26204 3.99613,-7.65444 0.84014,-1.76676 1.40522,-3.52293 1.60974,-5.27095 0.20288,-1.73409 0.0478,-3.43408 -0.51485,-5.10738 -0.56971,-1.69436 -1.54432,-3.32292 -2.92213,-4.90457 -1.4327,-1.64465 -3.28498,-3.21965 -5.51843,-4.74521 a 0.56692999,0.56693032 28.554228 0 0 -0.8425,0.24869 c -0.30822,0.73416 -0.73604,1.49171 -1.23241,2.23054 -0.56718,0.84424 -1.20949,1.64336 -1.85327,2.36003 -1.08166,1.20415 -2.12697,2.13227 -2.85731,2.73596 -1.02311,0.8457 -1.86405,1.41223 -2.18103,1.62319 a 0.56693,0.56693 90 0 0 0.62822,0.94392 c 0.33221,-0.22111 1.20929,-0.81208 2.27521,-1.69317 0.76,-0.62821 1.85451,-1.60101 2.97842,-2.85218 0.67196,-0.74805 1.34867,-1.58897 1.95094,-2.48543 0.39031,-0.58097 0.74826,-1.1839 1.04734,-1.7907 1.92665,1.36375 3.51359,2.74996 4.74986,4.16913 1.2984,1.49048 2.18819,2.99198 2.70236,4.52116 0.50666,1.50685 0.6479,3.03725 0.4634,4.61427 -0.18676,1.59627 -0.70673,3.23172 -1.50754,4.91576 -1.12349,2.36261 -2.51005,4.98506 -3.96241,7.58908 -1.45259,2.60445 -3.24077,5.63318 -5.34341,9.01824 a 0.61630955,0.61196969 0.42373963 0 0 0.84035,0.84687 c 1.74993,-1.03656 3.50552,-1.89738 5.32864,-2.77856 1.78998,-0.86516 3.60464,-1.73114 5.41285,-2.75835 1.84077,-1.04571 3.64803,-2.24332 5.42926,-3.76155 1.85511,-1.58119 3.62285,-3.46064 5.32304,-5.76654 a 0.00259734,0.07737272 33.560531 0 0 0.012,-0.0169 c 1.82699,-2.62272 3.0086,-5.15816 3.74192,-7.54528 0.83559,-2.72003 1.08947,-5.25041 1.0447,-7.47845 -0.0583,-2.90007 -0.6272,-5.40002 -1.18816,-7.20295 -0.15771,-0.50687 -0.31872,-0.97092 -0.47422,-1.38528 -1.00018,-2.66531 -2.31623,-4.53948 -2.72496,-5.20663 z"
       id="path12849"
       sodipodi:nodetypes="cccscc"
       inkscape:original-d="m 197.62537,107.69606 c 4.27339,8.77547 5.75529,18.57524 -1.03603,28.37742 -6.81285,9.29132 -14.06796,10.71928 -21.18545,14.99663 3.898,-6.37418 7.17622,-12.23111 9.29383,-16.68428 3.32097,-6.98374 1.91555,-13.12191 -7.15345,-19.3165 -1.24426,2.96383 -4.47593,6.63537 -8.33264,9.20223"
       inkscape:path-effect="#path-effect23284" /><path
       style="opacity:1;fill:#fe8019;fill-opacity:1;fill-rule:nonzero;stroke:#fe8019;stroke-width:0.6;stroke-linecap:round;stroke-linejoin:round;stroke-dasharray:none;stroke-opacity:1;paint-order:normal"
       d="m 169.7778,124.32152 c 0.18927,-1.53337 0.56403,-4.75001 0.76497,-8.63124 0.16925,-3.26921 0.25528,-7.67953 -0.1266,-12.68211 -0.54507,-7.140297 -1.92292,-13.970329 -4.19726,-20.597298 -2.87347,-7.918752 -6.38917,-14.217038 -10.55776,-19.903804 -2.81203,-3.83616 -5.76192,-7.153857 -7.77466,-9.252898 -2.46527,-2.570979 -4.85428,-4.650353 -5.84023,-5.597041 0.84596,1.073627 2.72723,3.624863 4.99459,6.352374 1.77253,2.132254 4.81799,5.64047 7.53686,9.297372 4.12869,5.553123 7.7431,11.685626 10.57204,19.48141 2.23839,6.522483 3.59777,13.257518 4.13585,20.306185 0.37714,4.94053 0.29241,9.30009 0.12482,12.53718 -0.19894,3.84273 -0.57012,7.02939 -0.75794,8.55097 z"
       id="path12851"
       sodipodi:nodetypes="ccc"
       inkscape:original-d="M 169.21514,124.25207 C 170.9996,109.79553 170.30348,96.059 165.68268,82.5949 159.86969,66.575876 151.20582,57.758706 142.04626,47.657129"
       inkscape:path-effect="#path-effect23282" /><path
       style="opacity:1;fill:#fe8019;fill-opacity:1;fill-rule:nonzero;stroke:#fe8019;stroke-width:1.512;stroke-linecap:round;stroke-linejoin:round;stroke-dasharray:none;stroke-opacity:1;paint-order:normal"
       d="m 56.740271,34.016516 c -0.502876,-0.533712 -1.698551,-1.911633 -4.171013,-3.033309 -0.150288,-0.06818 -0.308144,-0.136923 -0.473648,-0.205796 -1.403917,-0.584226 -3.215167,-1.118083 -5.443473,-1.455818 -1.626744,-0.246559 -3.296282,-0.360146 -4.861921,-0.355605 -0.676916,0.002 -1.307048,0.02616 -1.861716,0.06674 -0.518444,0.03793 -0.972665,0.09037 -1.31975,0.15146 a 0.78554261,0.77036947 65.833165 0 0 -0.46178,1.250065 c 1.130338,1.455711 2.43946,3.098507 3.811214,4.803412 -3.517662,0.700266 -6.527384,1.770815 -9.12549,3.171095 -2.918582,1.573007 -5.284118,3.54402 -7.257227,5.820383 -1.990504,2.296432 -3.569175,4.889166 -4.90742,7.6593 -1.365782,2.827135 -2.494647,5.87009 -3.532596,8.958222 a 0.76127438,0.76314062 7.5441336 0 0 0.767894,1.004882 c 2.279521,-0.141119 4.466254,-0.27417 6.490074,-0.392006 1.535251,-0.08939 3.179494,-0.187467 4.898198,-0.291745 -0.619271,0.942074 -1.12228,1.916124 -1.51847,2.922526 -0.567556,1.441708 -0.906315,2.925158 -1.06656,4.445263 -0.315698,2.994743 0.06846,6.067447 0.672106,9.124797 a 0.70955388,0.70521733 67.337491 0 0 1.090642,0.452051 c 2.816249,-1.920696 5.576538,-3.807017 8.045798,-5.495331 -0.03273,0.460548 -0.05356,0.864302 -0.06208,1.237815 -0.01824,0.799068 0.02231,1.417056 0.113006,1.981271 0.115472,0.718315 0.31269,1.328119 0.504849,1.837058 0.113547,0.30073 0.231688,0.580967 0.326338,0.799179 0.248218,0.57225 0.557269,1.218122 0.620507,1.349789 a 0.58323226,0.58323226 90 0 0 1.051478,-0.50501 c -0.07121,-0.148264 -0.360835,-0.744288 -0.600534,-1.305901 -0.08921,-0.209022 -0.19545,-0.468932 -0.295576,-0.745818 -0.169444,-0.468572 -0.327446,-0.997124 -0.413121,-1.609712 -0.06707,-0.479591 -0.09366,-1.021733 -0.06392,-1.762092 0.02636,-0.65631 0.09377,-1.423267 0.205729,-2.502359 a 0.63781628,0.64274337 76.017221 0 0 -0.995024,-0.593077 c -2.507512,1.666527 -5.375504,3.57325 -8.32919,5.540819 -0.453099,-2.63826 -0.682293,-5.192498 -0.41063,-7.645802 0.15532,-1.402643 0.472458,-2.752843 0.991076,-4.054651 0.533415,-1.338948 1.277294,-2.61979 2.267308,-3.847335 a 0.75318436,0.75177928 17.762067 0 0 -0.630824,-1.222648 c -2.298375,0.132129 -4.487552,0.260576 -6.490684,0.38176 -1.685684,0.101979 -3.484876,0.206847 -5.356834,0.313913 0.931472,-2.68393 1.935414,-5.283595 3.110787,-7.702565 1.302166,-2.679917 2.817212,-5.144754 4.699588,-7.305659 1.861494,-2.136934 4.083613,-3.978743 6.82665,-5.44999 2.749431,-1.474675 6.022289,-2.577044 9.975698,-3.23097 a 0.8037153,0.80135604 66.024396 0 0 0.494482,-1.292201 c -1.660107,-2.088748 -3.280711,-4.110779 -4.693402,-5.820916 l -0.46178,1.250064 c 0.275039,-0.05727 0.672453,-0.115045 1.158673,-0.162786 0.514921,-0.05056 1.109505,-0.08808 1.755138,-0.106381 1.495222,-0.04239 3.096192,0.02159 4.663456,0.200046 2.150049,0.244814 3.88355,0.661463 5.264766,1.099886 0.162357,0.05153 0.317715,0.102671 0.466231,0.153003 2.399904,0.813327 3.92929,1.688257 4.532983,2.120683 z"
       id="path12853"
       sodipodi:nodetypes="cccccccc"
       inkscape:original-d="m 56.740271,34.016516 c -5.575076,-4.873564 -15.565619,-4.5283 -17.986384,-4.068389 l 4.67453,5.836033 C 27.265279,38.467405 22.082988,48.554756 17.858152,61.090244 l 12.98095,-0.770557 C 26.629115,65.553232 26.89804,71.470181 28.073616,77.52547 l 9.191032,-6.196402 c -0.398271,4.076122 -0.299,4.955432 1.278841,8.240642"
       inkscape:path-effect="#path-effect23256" /><path
       style="display:inline;opacity:1;fill:#fe8019;fill-opacity:1;fill-rule:nonzero;stroke:none;stroke-width:2.835;stroke-linecap:round;stroke-linejoin:round;stroke-dasharray:none;stroke-opacity:1;paint-order:normal"
       d="m 28.317355,76.60329 c -0.163972,0.191197 -0.537106,0.389984 -0.983831,1.14718 -2.025918,3.43392 -9.029356,22.27575 -15.652151,40.24869 -1.300555,3.29371 -2.5436471,5.81237 -3.7923073,7.84834 -1.3810577,2.25185 -2.746491,3.87422 -4.0832036,5.17313 -1.3700075,1.33125 -2.913845,2.55227 -4.9045471,3.89043 -1.8321255,1.23157 -3.8161499,2.41663 -6.3058786,3.92026 a 1.4268584,1.4334611 40.81578 0 0 0.1802976,2.5452 c 2.1385929,0.89039 4.2970343,1.4157 6.44647496,1.69176 2.25766404,0.28996 4.47154924,0.29985 6.53341154,0.18744 4.2104721,-0.22955 11.9692545,-1.52512 11.9848585,-1.5274 0.634435,-0.093 1.010564,-0.14369 1.174519,-0.16647 l -0.339122,-2.44048 c -0.198326,0.0276 -0.514874,0.073 -1.1868,0.16821 -0.351523,0.0498 -7.518312,1.13693 -11.7553646,1.28978 -1.9575289,0.0706 -3.9966926,0.022 -6.03712182,-0.27109 -0.97431478,-0.13995 -1.94063668,-0.33429 -2.89843838,-0.5944 1.3747238,-0.82875 2.62904421,-1.60692 3.81566801,-2.40569 2.09808979,-1.4123 3.78840829,-2.76274 5.28715839,-4.27391 1.4681365,-1.48031 2.9629871,-3.29508 4.4501404,-5.74621 1.342332,-2.21243 2.647215,-4.88802 3.981161,-8.3014 a 0.00602379,0.15505965 23.013416 0 0 0.01104,-0.0291 c 6.567611,-17.99888 13.408672,-36.91225 14.083061,-40.843054 0.14866,-0.866492 -0.0075,-1.259372 -0.009,-1.511246 z"
       id="path13584"
       sodipodi:nodetypes="cccc"
       inkscape:original-d="m 28.317355,76.60329 -15.358094,41.88345 c -5.1346369,13.07515 -10.0714689,15.84291 -19.6284119,21.57147 7.951383,3.34817 16.5472659,1.51558 25.4145879,0.2834"
       inkscape:path-effect="#path-effect19570" /><path
       style="display:inline;opacity:1;fill:#fe8019;fill-opacity:1;fill-rule:nonzero;stroke:#fe8019;stroke-width:1.51181;stroke-linecap:round;stroke-linejoin:round;stroke-dasharray:none;stroke-opacity:1;paint-order:normal"
       d="m 137.17697,10.882591 c 0.73897,0.0098 2.13894,0.148461 4.46518,0.08359 1.03723,-0.02893 2.88726,-0.107451 4.58655,-0.03899 1.27013,0.05117 2.6831,0.186046 4.06469,0.528842 0.83674,0.207609 1.67723,0.494715 2.48969,0.898086 -1.03143,0.976324 -2.15277,2.067419 -3.29617,3.188049 a 0.85208074,0.86032217 20.225283 0 0 0.66964,1.469463 c 2.84255,-0.276473 5.47729,-0.23417 7.91031,0.118169 2.42833,0.35166 4.64444,1.010492 6.66146,1.959449 2.03826,0.958948 3.8695,2.21241 5.5093,3.738998 1.39232,1.296192 2.64252,2.785517 3.76081,4.449719 -0.60225,0.05257 -1.18492,0.101076 -1.74126,0.144062 -0.93457,0.07221 -1.95011,0.152114 -3.0124,0.236691 a 0.76479204,0.76373914 63.372855 0 0 -0.44273,1.336073 c 1.21518,1.069541 2.53352,2.186254 3.73614,3.290788 1.19138,1.094212 2.32543,2.225671 3.30737,3.44318 0.97002,1.202724 1.78728,2.483884 2.37322,3.898 0.45315,1.093625 0.76909,2.26939 0.91019,3.554787 -2.12107,-0.785372 -4.16518,-1.541134 -5.9579,-2.203681 a 0.76161048,0.76239158 85.212058 0 0 -0.92569,1.093807 c 1.08858,1.892781 1.71665,3.909037 2.13001,5.601782 0.36867,1.509736 0.61731,3.000578 0.75317,3.859002 0.19063,1.204376 0.36654,2.520007 0.39783,2.751649 l 0.1012,0.7491 1.4982,-0.202405 -0.1012,-0.749099 c -0.0308,-0.228318 -0.20903,-1.561281 -0.40281,-2.785587 -0.13715,-0.866582 -0.39249,-2.409706 -0.77412,-3.98117 -0.30613,-1.260603 -0.73564,-2.735552 -1.39255,-4.233475 1.64537,0.611967 3.43169,1.275955 5.25229,1.95175 a 0.76758271,0.7678199 9.4219485 0 0 1.03443,-0.740222 c -0.0512,-1.937407 -0.44828,-3.671964 -1.1039,-5.254264 -0.65433,-1.579173 -1.55731,-2.985356 -2.59733,-4.274099 -1.05008,-1.301215 -2.24655,-2.490345 -3.46567,-3.608599 -0.77071,-0.706938 -1.59805,-1.427327 -2.40184,-2.124623 0.41469,-0.03502 0.81777,-0.06927 1.20678,-0.102561 0.93869,-0.08034 1.95397,-0.157287 3.01274,-0.232524 a 0.76992225,0.76345612 72.215436 0 0 0.59372,-1.166558 c -1.33805,-2.202136 -2.88679,-4.167894 -4.67279,-5.850229 -1.74502,-1.643728 -3.70372,-3.004757 -5.89152,-4.051746 -2.16466,-1.035915 -4.53346,-1.754754 -7.11146,-2.144182 -1.86718,-0.282053 -3.8343,-0.389843 -5.90091,-0.324299 0.8797,-0.822726 1.71319,-1.613115 2.45786,-2.340578 a 0.87914507,0.89156497 39.113068 0 0 -0.13273,-1.3823 c -1.32265,-0.838453 -2.71798,-1.337441 -4.05201,-1.6359022 -1.55053,-0.3468962 -3.09329,-0.438359 -4.42953,-0.428481 -1.86875,0.013815 -3.61807,0.2312204 -4.72477,0.4131946 -2.14367,0.3524806 -3.82917,0.9611056 -4.35149,1.0973516 z"
       id="path13581"
       sodipodi:nodetypes="cccccccc"
       inkscape:original-d="m 137.17697,10.882591 c 6.00988,-0.73065 12.46669,-1.6562964 17.08226,1.297024 l -4.1833,3.981434 c 11.65249,-1.104404 19.92737,3.041258 25.25429,11.769157 l -6.02341,0.490452 c 5.00266,4.398317 10.47153,8.50687 10.66752,15.892698 l -7.06819,-2.62109 c 2.02468,3.526258 2.73321,7.782002 3.36934,12.49063"
       inkscape:path-effect="#path-effect1041" /><path
       style="display:inline;opacity:1;fill:none;fill-opacity:1;fill-rule:nonzero;stroke:#fe8019;stroke-width:1;stroke-linecap:round;stroke-linejoin:round;stroke-dasharray:none;stroke-opacity:1;paint-order:normal"
       d="m 49.769343,91.53464 c -0.42886,2.07655 -1.072132,5.62028 -1.270502,10.27475 -0.201495,4.72782 0.09595,9.61557 0.882751,14.51483 0.330947,2.06076 0.759314,4.20043 1.295404,6.41276 2.544796,10.50184 7.167208,21.22325 13.417505,31.53538 6.252222,10.31531 13.950867,19.78665 22.474507,27.86151 1.796478,1.7019 3.579482,3.2944 5.336118,4.78204 4.184383,3.54362 8.567544,6.78726 13.102914,9.66707 4.45144,2.82651 8.11755,4.7065 10.2926,5.76614 a 0.47244099,0.47244099 90 0 0 0.41382,-0.84944 c -2.15362,-1.0492 -5.78678,-2.91217 -10.19993,-5.71437 -4.49706,-2.85547 -8.845555,-6.07324 -12.998765,-9.59046 -1.743486,-1.4765 -3.513407,-3.05731 -5.296926,-4.74692 C 78.75549,173.43018 71.110338,164.0246 64.902558,153.78262 58.688606,143.53045 54.252422,132.86351 51.669192,122.49321 c -0.544364,-2.18533 -0.991405,-4.29518 -1.356076,-6.32731 -0.87058,-4.85129 -1.345515,-9.62355 -1.347901,-14.34666 -0.0023,-4.627336 0.456678,-8.190519 0.804128,-10.2846 z"
       id="path13588"
       sodipodi:nodetypes="cc"
       inkscape:original-d="m 49.769343,91.53464 c -7.343556,39.45002 24.708651,90.401 65.738207,110.38976"
       inkscape:path-effect="#path-effect23272" /><path
       style="display:inline;opacity:1;fill:none;fill-opacity:1;fill-rule:nonzero;stroke:#fe8019;stroke-width:1;stroke-linecap:round;stroke-linejoin:round;stroke-dasharray:none;stroke-opacity:1;paint-order:normal"
       d="m 82.373554,60.511284 c -1.485041,2.826902 -3.786981,7.552647 -5.741293,13.845445 -1.978894,6.371952 -3.166743,12.934748 -3.639336,19.523743 -0.198728,2.770707 -0.279334,5.641844 -0.230648,8.611388 0.231416,14.11504 3.342283,28.36865 8.061942,41.85953 4.700277,13.43546 10.877983,25.57112 16.984912,35.37321 1.290345,2.0711 2.548129,3.99107 3.754369,5.75699 1.8208,2.66561 3.68249,5.21198 5.55071,7.58264 4.00194,5.07825 6.97557,8.00835 8.50236,9.42635 a 0.47244099,0.47244099 90 0 0 0.64302,-0.69234 c -1.49447,-1.38798 -4.43431,-4.28248 -8.40325,-9.31885 -1.85372,-2.35227 -3.70276,-4.88117 -5.5126,-7.53075 -1.19889,-1.75516 -2.449421,-3.66403 -3.732639,-5.72369 -6.074808,-9.75053 -12.220439,-21.82362 -16.894992,-35.18555 -4.699437,-13.43307 -7.634604,-27.58778 -7.932309,-41.56678 -0.06265,-2.941596 -0.007,-5.784067 0.152028,-8.531009 0.379113,-6.54792 1.365775,-13.041765 3.143979,-19.453337 1.751635,-6.31577 3.881958,-11.108837 5.293747,-13.97699 z"
       id="path13592"
       sodipodi:nodetypes="cc"
       inkscape:path-effect="#path-effect6775"
       inkscape:original-d="M 82.373554,60.511284 C 55.216745,113.89955 95.399814,183.0696 115.93808,202.14441" /><path
       style="display:inline;opacity:1;fill:#fe8019;fill-opacity:1;fill-rule:nonzero;stroke:#fe8019;stroke-width:1.13386;stroke-linecap:round;stroke-linejoin:round;stroke-dasharray:none;stroke-opacity:1;paint-order:normal"
       d="m 122.08604,29.663677 c 2.63551,0.315112 6.15968,0.986276 10.94176,2.246649 5.20512,1.371871 10.65734,3.129112 16.42026,5.887679 5.71807,2.737098 11.14438,6.044719 16.2241,9.66411 4.55653,3.246614 8.26058,6.338852 10.6281,8.39186 l 0.74284,-0.856638 c -2.38364,-2.066986 -6.11718,-5.184065 -10.71298,-8.458653 -5.12385,-3.650837 -10.60632,-6.993703 -16.3925,-9.763405 -5.76414,-2.759153 -11.34357,-4.849366 -16.64847,-5.96828 -4.70975,-0.993385 -8.78043,-1.102307 -11.20311,-1.143322 z"
       id="path14321"
       sodipodi:nodetypes="cc"
       inkscape:original-d="m 122.08604,29.663677 c 18.45538,1.256229 36.96754,10.484352 54.58564,25.761979"
       inkscape:path-effect="#path-effect23268" /><path
       style="opacity:1;fill:#fe8019;fill-opacity:1;fill-rule:nonzero;stroke:#fe8019;stroke-width:2.83465;stroke-linecap:round;stroke-linejoin:round;stroke-dasharray:none;stroke-opacity:1;paint-order:normal"
       d="m 176.40412,54.768346 c 1.9e-4,-1.93e-4 1.3e-4,-0.0014 0.001,-0.0012 0.0598,0.01432 5.15111,4.812409 10.59586,12.26075 5.76726,7.889537 10.64493,17.102755 13.44834,27.7007 3.99677,15.109252 2.50914,28.293222 0.8113,36.862822 -2.39662,12.09655 -6.80147,22.27053 -10.4547,29.09794 -0.85285,1.59387 -1.70111,3.07441 -2.5282,4.43417 -1.22824,2.01928 -2.465,3.88541 -3.66789,5.55992 -1.03041,1.4344 -1.95065,2.60948 -2.72641,3.54022 -1.07855,1.29403 -1.81986,2.04924 -2.21554,2.43677 l 1.98342,2.02516 c 0.45227,-0.44295 1.26808,-1.27746 2.4096,-2.64703 0.8207,-0.98467 1.78244,-2.21361 2.85113,-3.70131 1.24724,-1.73625 2.52371,-3.6629 3.78751,-5.74063 0.85103,-1.39912 1.73299,-2.91678 2.62296,-4.54683 3.81994,-6.99658 8.49787,-17.36422 10.72425,-29.93616 1.57518,-8.89476 2.5366,-22.53658 -2.13166,-37.803139 -3.26574,-10.679937 -8.55446,-19.810019 -14.58693,-27.529942 -5.70479,-7.3006 -10.90945,-11.951722 -10.9253,-12.011095 z"
       id="path14324"
       sodipodi:nodetypes="cc"
       inkscape:original-d="m 176.40412,54.768346 c 53.57359,52.214874 15.00706,112.374824 4.2556,122.904714"
       inkscape:path-effect="#path-effect23280" /><path
       style="display:inline;opacity:1;fill:none;stroke:#fe8019;stroke-width:2.835;stroke-linecap:round;stroke-linejoin:round;stroke-dasharray:none;stroke-opacity:1;paint-order:normal"
       d="m 18.597314,140.54321 c 10.338388,23.74601 17.327996,35.28199 55.772967,56.06611"
       id="path14326"
       sodipodi:nodetypes="cc" /><path
       style="display:inline;opacity:1;fill:#fe8019;fill-opacity:1;fill-rule:nonzero;stroke:#fe8019;stroke-width:1.512;stroke-linecap:round;stroke-linejoin:round;stroke-dasharray:none;stroke-opacity:1;paint-order:normal"
       d="m 37.218525,142.86795 c 0.45932,3.2915 1.450556,8.76813 4.353202,15.41733 0.546969,1.25296 1.16114,2.5451 1.842222,3.86893 3.23044,6.27904 7.540516,12.46609 12.357103,18.12607 4.817742,5.66134 10.005341,10.63428 15.320322,14.27173 1.120196,0.76663 2.214777,1.45195 3.278907,2.05731 1.598833,0.90953 3.281174,1.71778 4.985601,2.38444 3.717092,1.4539 6.527752,1.84554 8.131262,2.02047 -1.589468,-0.36968 -4.237917,-1.19925 -7.690456,-2.99349 -1.593653,-0.82821 -3.128449,-1.7386 -4.64646,-2.70651 -1.003907,-0.64011 -2.045627,-1.33746 -3.124177,-2.10328 -5.118861,-3.63466 -10.339908,-8.31257 -15.103643,-13.91044 -4.761135,-5.59482 -8.788824,-11.78367 -12.060757,-17.9054 -0.689714,-1.29044 -1.325877,-2.53928 -1.918176,-3.74535 -3.213933,-6.54438 -4.885037,-11.34608 -5.72495,-14.78181 z"
       id="path14341"
       sodipodi:nodetypes="cc"
       inkscape:original-d="m 37.218525,142.86795 c 4.682995,24.45463 29.569346,54.62313 50.268619,58.14628"
       inkscape:path-effect="#path-effect23278" /><path
       style="display:inline;opacity:1;fill:#fabd2f;fill-opacity:1;fill-rule:nonzero;stroke:#fe8019;stroke-width:1;stroke-linecap:round;stroke-linejoin:round;stroke-dasharray:none;stroke-opacity:1"
       d="m 163.66258,119.67161 c -0.0118,0.0119 -0.0443,0.0257 -0.0706,0.0713 -0.11472,0.19919 -0.48102,1.22219 -0.50098,1.84717 -0.0202,0.63422 0.30855,1.80083 0.3935,1.93127 0.0124,0.019 0.0285,0.0203 0.0342,0.0243 0.006,-0.004 0.0222,-0.004 0.036,-0.0217 0.0944,-0.12379 0.50878,-1.2628 0.5356,-1.89679 0.0264,-0.62474 -0.26302,-1.67208 -0.36265,-1.87923 -0.0228,-0.0474 -0.0542,-0.0636 -0.0651,-0.0764 z"
       id="path1043"
       sodipodi:nodetypes="cc"
       inkscape:original-d="m 163.66258,119.67161 -0.14381,3.87407"
       inkscape:path-effect="#path-effect1045" /><path
       style="display:inline;opacity:1;fill:#fabd2f;fill-opacity:1;fill-rule:nonzero;stroke:#fe8019;stroke-width:0.887972;stroke-linecap:round;stroke-linejoin:round;stroke-dasharray:none;stroke-opacity:1"
       d="m 165.18975,119.56775 c -0.0105,0.009 -0.0392,0.0188 -0.063,0.0554 -0.10104,0.15565 -0.43209,0.95833 -0.45245,1.45109 -0.0207,0.5002 0.26852,1.42408 0.34129,1.52861 0.011,0.0159 0.0252,0.0163 0.0303,0.0196 0.005,-0.003 0.0195,-0.002 0.032,-0.0167 0.0823,-0.0972 0.45697,-0.98987 0.48339,-1.4898 0.026,-0.49249 -0.22815,-1.32271 -0.31412,-1.48717 -0.0202,-0.0386 -0.0479,-0.0509 -0.0575,-0.061 z"
       id="path1043-6"
       sodipodi:nodetypes="cc"
       inkscape:original-d="m 165.18975,119.56775 -0.14381,3.05469"
       inkscape:path-effect="#path-effect1045-3" /><path
       style="display:inline;fill:#fabd2f;fill-opacity:1;fill-rule:nonzero;stroke:#fe8019;stroke-width:1.26582;stroke-linecap:round;stroke-linejoin:round;stroke-dasharray:none;stroke-opacity:1"
       d="m 86.996704,137.43043 c -0.01494,0.0137 -0.05597,0.0286 -0.08961,0.0824 -0.144403,0.23095 -0.613672,1.42039 -0.641475,2.14931 -0.02822,0.73987 0.385353,2.10443 0.490278,2.2582 0.01573,0.0231 0.03604,0.024 0.04325,0.0288 0.0076,-0.004 0.02791,-0.003 0.0456,-0.0249 0.117945,-0.14404 0.649031,-1.46729 0.685491,-2.20679 0.03592,-0.72858 -0.32775,-1.95443 -0.451445,-2.19711 -0.02882,-0.0565 -0.0684,-0.0749 -0.08208,-0.0899 z"
       id="path1043-5"
       sodipodi:nodetypes="cc"
       inkscape:original-d="m 86.996704,137.43043 -0.19756,4.51866"
       inkscape:path-effect="#path-effect1045-7" /><path
       style="display:inline;fill:#fabd2f;fill-opacity:1;fill-rule:nonzero;stroke:#fe8019;stroke-width:0.956179;stroke-linecap:round;stroke-linejoin:round;stroke-dasharray:none;stroke-opacity:1"
       d="m 85.382624,137.56765 c -0.01127,0.0108 -0.04232,0.0229 -0.0676,0.0649 -0.109358,0.18155 -0.46189,1.11534 -0.482004,1.68672 -0.02041,0.57991 0.292929,1.64807 0.373084,1.76799 0.01187,0.0178 0.02726,0.0187 0.03271,0.0224 0.0057,-0.003 0.02114,-0.003 0.03441,-0.0197 0.08961,-0.11304 0.48852,-1.15227 0.515186,-1.73192 0.02627,-0.57114 -0.249395,-1.53044 -0.343675,-1.72025 -0.02179,-0.0439 -0.05176,-0.0584 -0.06212,-0.0701 z"
       id="path1043-62"
       sodipodi:nodetypes="cc"
       inkscape:original-d="m 85.382624,137.56765 -0.14381,3.54198"
       inkscape:path-effect="#path-effect1045-35" /><path
       style="display:inline;opacity:1;fill:#fe8019;fill-opacity:1;fill-rule:nonzero;stroke:none;stroke-width:2.835;stroke-linecap:round;stroke-linejoin:round;stroke-dasharray:none;stroke-opacity:1"
       d="m 121.23324,165.3412 c 0.009,1.27332 -0.13622,3.15398 -0.90357,5.60028 -0.14309,0.45616 -0.30654,0.92825 -0.49265,1.41672 -0.88617,2.32589 -2.15198,4.6715 -3.68008,7.00648 -1.86652,2.85208 -4.01247,5.51562 -5.94556,7.76345 -1.60342,1.86447 -3.31077,3.72231 -3.99237,4.46569 l 2.08962,1.91592 c 0.6771,-0.73849 2.4148,-2.62908 4.05221,-4.53309 1.97206,-2.29313 4.20633,-5.06166 6.16826,-8.05953 1.60703,-2.45557 2.97987,-4.98454 3.95715,-7.54956 0.20588,-0.54035 0.38801,-1.06607 0.54846,-1.57756 0.86582,-2.7602 1.04454,-4.9377 1.03345,-6.46932 a 1.4175,1.4175 90 0 0 -2.83492,0.0205 z"
       id="path1160"
       sodipodi:nodetypes="cc"
       inkscape:original-d="m 122.6507,165.33094 c 0.0728,10.05816 -9.09765,20.36145 -15.38688,27.22084"
       inkscape:path-effect="#path-effect1178" /><path
       style="display:inline;opacity:1;fill:none;stroke:#fe8019;stroke-width:2.835;stroke-linecap:round;stroke-linejoin:round;stroke-dasharray:none;stroke-opacity:1"
       d="m 128.22946,164.62681 c 1.39285,4.83559 10.8841,15.11408 22.86695,19.26636 -0.004,4.4025 1.21771,7.96422 3.67076,10.27813"
       id="path1162"
       sodipodi:nodetypes="ccc" /><path
       style="display:inline;opacity:1;fill:none;stroke:#fe8019;stroke-width:1.512;stroke-linecap:round;stroke-linejoin:round;stroke-dasharray:none;stroke-opacity:1"
       d="m 179.73325,176.22714 c -5.2632,-2.27464 -23.21013,0.59538 -27.83594,6.92281"
       id="path1173"
       sodipodi:nodetypes="cc" /><path
       style="opacity:1;fill:none;stroke:#fe8019;stroke-width:1.512;stroke-linecap:round;stroke-linejoin:round;stroke-dasharray:none;stroke-opacity:1"
       d="m 179.92638,177.56815 c -3.67551,3.57673 -24.2574,7.56825 -28.33158,6.64676"
       id="path1176"
       sodipodi:nodetypes="cc" /><path
       style="fill:none;fill-opacity:1;stroke:#fe8019;stroke-linecap:round;stroke-linejoin:miter;stroke-opacity:1"
       d="m 104.20557,141.34375 5.78515,6.20947 1.55933,-10.20166"
       id="path1993"
       sodipodi:nodetypes="ccc" /><path
       style="fill:none;fill-opacity:1;stroke:none;stroke-width:2.5;stroke-linecap:butt;stroke-linejoin:miter;stroke-opacity:1;paint-order:stroke fill markers"
       d="m 110.75,216.92918 c -13.306649,-1.51683 -20.895759,-3.36368 -25.590249,-6.2275 -16.35636,-9.97803 -30.974913,-28.9466 -37.654421,-48.85919 -0.896416,-2.67234 -1.754466,-4.40466 -2.23099,-4.50415 -1.015197,-0.21195 -1.019482,1.79258 -0.01311,6.13197 2.581488,11.13116 8.859356,22.54759 18.382406,33.42879 1.63616,1.8695 2.874225,3.49971 2.75126,3.62268 C 66.108016,200.80865 59.90111,196.53589 54.75,192.50555 49.462125,188.36821 42.311069,180.90752 39.169092,176.25 c -3.118927,-4.62335 -6.514207,-10.89079 -8.938596,-16.5 -1.010305,-2.3375 -2.097993,-4.52698 -2.417086,-4.86552 -0.459033,-0.48701 -1.726777,-0.46294 -6.071789,0.11524 -5.850712,0.77854 -12.0769714,0.95821 -14.7411403,0.42538 l -1.6245193,-0.32491 1.7275941,-1.05009 c 5.8988495,-3.58554 9.9957475,-8.04365 13.1524855,-14.31209 1.7144,-3.40435 9.649051,-24.98611 13.782667,-37.48801 l 2.397133,-7.249999 3.40708,-2.410475 3.407079,-2.410475 0.576579,1.97787 c 0.317119,1.08783 0.818204,2.42935 1.113523,2.98116 0.417614,0.780315 0.257956,1.801815 -0.718401,4.596365 -1.794898,5.137394 -3.278017,11.659244 -2.767498,12.169764 0.61074,0.61074 0.792952,0.21387 3.328102,-7.24873 5.499068,-16.187359 13.139785,-27.878354 28.935731,-44.27432 3.671175,-3.810625 6.088395,-6.691775 5.776155,-6.88475 -0.537645,-0.332285 -3.683245,1.94934 -7.02375,5.0946 l -1.77956,1.67555 -1.158375,-2.88328 C 67.641371,52.676095 63.142476,44.341853 59.658445,39.091505 56.466655,34.281549 48.747432,25.75 47.587247,25.75 c -1.139531,0 -0.559227,1.140333 1.999883,3.929896 C 53.699234,34.162302 61.744285,45.25 60.88454,45.25 c -0.07763,0 -0.927155,-0.231733 -1.88784,-0.514962 -2.951695,-0.87022 -9.133556,-1.517222 -11.355241,-1.188454 -2.905658,0.429982 -3.236067,1.671768 -1.139112,4.281148 0.878922,1.093702 1.519203,2.045848 1.422847,2.115882 -0.09636,0.07003 -1.443861,0.582448 -2.994454,1.138698 l -2.81926,1.011364 -0.296888,-2.796838 C 41.651303,47.758577 41.37094,43.35 41.191564,39.5 40.769058,30.431662 41.48307,25.690008 43.58809,23.584988 c 1.312338,-1.312338 1.693605,-1.432301 3.684765,-1.159382 4.418897,0.605677 9.776445,4.132082 21.727146,14.301081 10.280095,8.747457 16.07556,13.112176 17,12.803142 0.4125,-0.137896 2.703115,-0.934403 5.09025,-1.770016 6.89317,-2.412939 15.363109,-3.647334 23.134579,-3.371595 3.58884,0.127336 7.00529,0.392737 7.5921,0.58978 0.94036,0.315761 1.61625,-0.462434 5.69751,-6.559868 11.08018,-16.553864 20.99916,-28.5643949 27.66557,-33.4991958 4.54414,-3.363798 5.39578,-3.0533985 8.45354,3.0810659 2.95302,5.9243669 4.85333,12.6822349 5.57905,19.8401759 l 0.28795,2.840176 -1.62197,-0.465176 C 166.98649,29.959329 165.47887,29.75 164.5283,29.75 c -1.34423,0 -1.59496,-0.133333 -1.1283,-0.6 0.33,-0.33 0.6,-1.130152 0.6,-1.778115 0,-2.423283 -8.11287,-4.310071 -13.7496,-3.197708 -1.37479,0.271302 -2.56516,0.427729 -2.64527,0.347616 -0.32715,-0.327145 6.00734,-9.259083 8.83663,-12.460083 4.81752,-5.4504453 2.69062,-5.4302095 -2.48188,0.02361 -7.48225,7.889209 -12.57203,18.572351 -14.69026,30.834017 l -0.33157,1.91934 -4.71902,-0.353799 C 130.07932,44.174509 129.5,44.229278 129.5,44.93101 c 0,0.439963 0.50625,0.899296 1.125,1.02074 6.02466,1.182478 14.03205,3.241098 18.125,4.659758 14.05808,4.872677 31.57783,16.632658 40.28259,27.039333 12.418,14.84592 18.91308,30.054109 20.22176,47.349149 l 0.30267,4 -1.6007,-3.125 c -0.88038,-1.71875 -1.92978,-3.125 -2.332,-3.125 -0.49664,0 -0.61886,0.28078 -0.38089,0.875 1.12676,2.81356 2.75571,10.69829 2.75064,13.31411 -0.0147,7.5964 -4.29029,15.63986 -10.88781,20.48289 C 194.45567,159.36772 187,163.50747 187,163.0335 c 0,-0.16685 0.53033,-1.14347 1.17851,-2.17025 0.64818,-1.02678 2.47111,-4.41486 4.05095,-7.52906 2.18935,-4.31567 2.9348,-6.34989 3.13466,-8.55398 0.32274,-3.55925 -0.7296,-7.03258 -2.94501,-9.72026 -1.62301,-1.96899 -6.1955,-5.80995 -6.9165,-5.80995 -0.22417,0 -0.97232,0.95625 -1.66254,2.125 -0.69023,1.16875 -2.08992,2.9125 -3.11044,3.875 l -1.85548,1.75 0.32805,-6.25 c 0.54779,-10.43632 -1.03801,-23.06672 -4.01773,-31.999999 -2.67862,-8.030575 -8.20198,-17.99819 -13.5762,-24.5 C 156.1793,67.681951 149.5,61.51353 149.5,63.067861 c 0,0.174825 1.74375,2.45347 3.875,5.063665 11.9088,14.584995 15.77664,20.57104 18.91485,29.27349 0.67383,1.868565 0.66567,1.898815 -0.42644,1.581055 -5.50034,-1.600405 -13.38776,-6.98098 -16.89221,-11.523405 -2.97569,-3.85704 -3.54024,-3.555115 -4.28217,2.29018 -0.87448,6.88949 -2.96385,11.147054 -8.90333,18.142484 l -2.88281,3.39532 -2.82644,-1.58866 c -1.55455,-0.87376 -5.11219,-3.02041 -7.90587,-4.77033 -6.71381,-4.20541 -7.7309,-4.15304 -6.72003,0.346 0.27128,1.20738 0.39607,2.2924 0.2773,2.41116 -0.11876,0.11876 -1.84986,-1.45234 -3.84689,-3.49134 -3.87844,-3.95996 -5.84921,-7.142944 -7.68388,-12.410224 -1.46151,-4.19596 -2.66048,-4.617475 -4.10229,-1.442225 -1.35764,2.98987 -3.74387,6.17501 -8.563704,11.430799 l -4.12357,4.49656 -1.721155,-1.51119 c -0.946635,-0.83116 -2.139255,-1.5112 -2.650265,-1.5112 -1.355225,0 -1.692945,1.45175 -0.67244,2.89059 0.48749,0.68732 1.111345,1.57559 1.386345,1.97393 0.38756,0.56138 -0.28709,1.44415 -3,3.92549 -1.925,1.76069 -3.695505,3.20322 -3.93446,3.20562 -0.23971,0.002 -0.280965,-2.18085 -0.09203,-4.87063 0.80312,-11.433669 2.944905,-21.205009 6.49018,-29.609819 1.883815,-4.465975 2.12235,-5.51518 1.253875,-5.51518 -0.715695,0 -4.06046,7.22425 -5.910685,12.766305 -3.12799,9.369375 -4.903255,22.373184 -4.35095,31.870634 l 0.31327,5.38693 -1.1346,-0.25909 c -0.62403,-0.1425 -3.4971,-0.0916 -6.3846,0.11307 -4.16793,0.29545 -5.25,0.52673 -5.25,1.12215 0,0.74878 3.08944,1.41889 10.32104,2.23868 l 2.82104,0.3198 0.3478,2.84576 c 0.191285,1.56517 0.78927,5.06581 1.32885,7.7792 0.53958,2.71339 0.879725,5.03477 0.75588,5.15862 -0.123845,0.12385 -1.36507,-0.35245 -2.75827,-1.05844 -2.83308,-1.43563 -3.57271,-1.57275 -3.552575,-0.65862 0.0148,0.67231 1.825715,2.09889 5.611235,4.42037 1.30625,0.80106 2.375,1.80769 2.375,2.23695 0,1.33272 4.788375,15.18522 7.24787,20.96768 5.662845,13.31379 14.109959,27.92995 21.938279,37.96011 1.27067,1.62806 2.19659,3.07382 2.05761,3.21281 -0.42537,0.42536 -9.70165,-6.10723 -14.99376,-10.55898 C 80.407201,183.58087 64.851081,158.34403 59.418295,133.25 c -0.98232,-4.53732 -1.138765,-6.72627 -1.152455,-16.12507 -0.0096,-6.60248 -0.20157,-10.81314 -0.48858,-10.71742 -1.085885,0.36213 -1.44376,3.6627 -1.47382,13.59249 -0.02745,9.06049 0.11981,11.19056 1.07393,15.53703 6.319011,28.78604 27.180836,58.44709 53.18827,75.62234 3.1986,2.11235 6.6861,4.33692 7.75,4.9435 l 1.93436,1.10287 -4,-0.0528 c -2.2,-0.0291 -4.675,-0.12972 -5.5,-0.22377 z"
       id="path20190"
       transform="translate(-8.0996093,-15.466797)" /></g></svg>
